# Blender 3.6.3
# www.blender.org
mtllib SawMill.mtl
o Cube
v 0.000000 9.365107 4.000000
v 0.000000 4.500000 4.000000
v 0.000000 0.000000 4.000000
v 0.000000 0.000000 0.000000
v 0.000000 9.365107 0.000000
v 0.000000 9.799217 4.000000
v 0.000000 9.799217 0.000000
v 0.000000 9.365107 4.711962
v 0.000000 9.799217 4.711962
v 0.000000 9.911339 4.711962
v 0.000000 9.911339 0.000000
v 0.000000 9.911339 4.000000
v 3.990000 0.000000 4.000000
v 3.990000 4.500000 4.000000
v 0.179167 9.147358 4.000000
v 3.990000 0.000000 0.000000
v 3.990000 4.500000 0.000000
v 0.300000 9.000000 0.000000
v 4.201533 4.673457 4.000000
v 0.305078 9.426015 4.000000
v 4.201533 4.673457 0.000000
v 0.305078 9.426015 0.000000
v 3.990000 4.500000 4.711962
v 0.179167 9.147358 4.711962
v 4.201533 4.673457 4.711962
v 0.305078 9.426015 4.711962
v 0.000000 9.365107 4.000000
v 0.442236 9.538136 0.000000
v 0.442236 9.538136 4.000000
v 0.000000 9.365107 0.000000
v 0.442236 9.538136 4.711962
v 3.990000 0.000000 -4.000000
v 4.201533 4.673457 3.200000
v 4.201533 4.673457 2.400000
v 4.201533 4.673457 1.600000
v 4.201533 4.673457 0.800000
v 0.305078 9.426015 3.200000
v 0.305078 9.426015 2.400000
v 0.305078 9.426015 1.600000
v 0.305078 9.426015 0.800000
v 4.295901 4.750826 0.800000
v 4.295901 4.750826 0.000000
v 0.399445 9.503384 0.800000
v 0.399445 9.503384 0.000000
v 4.295901 4.750826 4.711962
v 0.399445 9.503384 4.711962
v 0.399445 9.503384 4.000000
v 4.295901 4.750826 4.000000
v 4.295901 4.750826 3.200000
v 4.295901 4.750826 2.400000
v 4.295901 4.750826 1.600000
v 0.399445 9.503384 3.200000
v 0.399445 9.503384 2.400000
v 0.399445 9.503384 1.600000
v 4.365986 4.808287 4.711962
v 0.469531 9.560844 4.711962
v 0.469531 9.560844 4.000000
v 4.365986 4.808287 4.000000
v 4.365986 4.808287 1.600000
v 4.365986 4.808287 0.800000
v 0.469531 9.560844 1.600000
v 0.469531 9.560844 0.800000
v -3.990000 0.000000 4.000000
v -3.990000 4.500000 4.000000
v -0.179167 9.147358 4.000000
v -3.990000 0.000000 0.000000
v -3.990000 4.500000 0.000000
v -0.300000 9.000000 0.000000
v -4.201533 4.673457 4.000000
v -0.305078 9.426015 4.000000
v -4.201533 4.673457 0.000000
v -0.305078 9.426015 0.000000
v -3.990000 4.500000 4.711962
v -0.179167 9.147358 4.711962
v -4.201533 4.673457 4.711962
v -0.305078 9.426015 4.711962
v -0.442236 9.538136 0.000000
v -0.442236 9.538136 4.000000
v -0.442236 9.538136 4.711962
v -3.990000 0.000000 -4.000000
v -4.201533 4.673457 3.200000
v -4.201533 4.673457 2.400000
v -4.201533 4.673457 1.600000
v -4.201533 4.673457 0.800000
v -0.305078 9.426015 3.200000
v -0.305078 9.426015 2.400000
v -0.305078 9.426015 1.600000
v -0.305078 9.426015 0.800000
v -4.295901 4.750826 0.800000
v -4.295901 4.750826 0.000000
v -0.399445 9.503384 0.800000
v -0.399445 9.503384 0.000000
v -4.295901 4.750826 4.711962
v -0.399445 9.503384 4.711962
v -0.399445 9.503384 4.000000
v -4.295901 4.750826 4.000000
v -4.295901 4.750826 3.200000
v -4.295901 4.750826 2.400000
v -4.295901 4.750826 1.600000
v -0.399445 9.503384 3.200000
v -0.399445 9.503384 2.400000
v -0.399445 9.503384 1.600000
v -4.365986 4.808287 4.711962
v -0.469531 9.560844 4.711962
v -0.469531 9.560844 4.000000
v -4.365986 4.808287 4.000000
v -4.365986 4.808287 1.600000
v -4.365986 4.808287 0.800000
v -0.469531 9.560844 1.600000
v -0.469531 9.560844 0.800000
v 0.000000 9.365107 -4.000000
v 0.000000 4.500000 -4.000000
v 0.000000 0.000000 -4.000000
v 0.000000 9.799217 -4.000000
v 0.000000 9.365107 -4.711962
v 0.000000 9.799217 -4.711962
v 0.000000 9.911339 -4.711962
v 0.000000 9.911339 -4.000000
v 3.990000 0.000000 -4.000000
v 3.990000 4.500000 -4.000000
v 0.179167 9.147358 -4.000000
v 4.201533 4.673457 -4.000000
v 0.305078 9.426015 -4.000000
v 3.990000 4.500000 -4.711962
v 0.179167 9.147358 -4.711962
v 4.201533 4.673457 -4.711962
v 0.305078 9.426015 -4.711962
v 0.000000 9.365107 -4.000000
v 0.442236 9.538136 -4.000000
v 0.442236 9.538136 -4.711962
v 3.990000 0.000000 4.000000
v 4.201533 4.673457 -3.200000
v 4.201533 4.673457 -2.400000
v 4.201533 4.673457 -1.600000
v 4.201533 4.673457 -0.800000
v 0.305078 9.426015 -3.200000
v 0.305078 9.426015 -2.400000
v 0.305078 9.426015 -1.600000
v 0.305078 9.426015 -0.800000
v 4.295901 4.750826 -0.800000
v 0.399445 9.503384 -0.800000
v 4.295901 4.750826 -4.711962
v 0.399445 9.503384 -4.711962
v 0.399445 9.503384 -4.000000
v 4.295901 4.750826 -4.000000
v 4.295901 4.750826 -3.200000
v 4.295901 4.750826 -2.400000
v 4.295901 4.750826 -1.600000
v 0.399445 9.503384 -3.200000
v 0.399445 9.503384 -2.400000
v 0.399445 9.503384 -1.600000
v 4.365986 4.808287 -4.711962
v 0.469531 9.560844 -4.711962
v 0.469531 9.560844 -4.000000
v 4.365986 4.808287 -4.000000
v 4.365986 4.808287 -1.600000
v 4.365986 4.808287 -0.800000
v 0.469531 9.560844 -1.600000
v 0.469531 9.560844 -0.800000
v -3.990000 0.000000 -4.000000
v -3.990000 4.500000 -4.000000
v -0.179167 9.147358 -4.000000
v -4.201533 4.673457 -4.000000
v -0.305078 9.426015 -4.000000
v -3.990000 4.500000 -4.711962
v -0.179167 9.147358 -4.711962
v -4.201533 4.673457 -4.711962
v -0.305078 9.426015 -4.711962
v -0.442236 9.538136 -4.000000
v -0.442236 9.538136 -4.711962
v -3.990000 0.000000 4.000000
v -4.201533 4.673457 -3.200000
v -4.201533 4.673457 -2.400000
v -4.201533 4.673457 -1.600000
v -4.201533 4.673457 -0.800000
v -0.305078 9.426015 -3.200000
v -0.305078 9.426015 -2.400000
v -0.305078 9.426015 -1.600000
v -0.305078 9.426015 -0.800000
v -4.295901 4.750826 -0.800000
v -0.399445 9.503384 -0.800000
v -4.295901 4.750826 -4.711962
v -0.399445 9.503384 -4.711962
v -0.399445 9.503384 -4.000000
v -4.295901 4.750826 -4.000000
v -4.295901 4.750826 -3.200000
v -4.295901 4.750826 -2.400000
v -4.295901 4.750826 -1.600000
v -0.399445 9.503384 -3.200000
v -0.399445 9.503384 -2.400000
v -0.399445 9.503384 -1.600000
v -4.365986 4.808287 -4.711962
v -0.469531 9.560844 -4.711962
v -0.469531 9.560844 -4.000000
v -4.365986 4.808287 -4.000000
v -4.365986 4.808287 -1.600000
v -4.365986 4.808287 -0.800000
v -0.469531 9.560844 -1.600000
v -0.469531 9.560844 -0.800000
v 4.334211 4.782235 0.000000
v 0.437756 9.534794 0.000000
v 4.334211 4.782235 -0.800000
v 0.437756 9.534794 -0.800000
v -4.336490 4.784103 0.800000
v -4.336490 4.784103 0.000000
v -0.440034 9.536661 0.800000
v -0.440034 9.536661 0.000000
v 0.000000 10.054798 4.000000
v 0.000000 10.054798 0.000000
v 0.000000 10.054798 4.711962
v 0.534758 9.647774 4.000000
v 0.534758 9.647773 4.711962
v 0.534758 9.647774 0.000000
v -0.534758 9.647774 4.000000
v -0.534758 9.647773 4.711962
v -0.534758 9.647774 0.000000
v 0.000000 10.054798 -4.000000
v 0.000000 10.054798 -4.711962
v 0.534758 9.647774 -4.000000
v 0.534758 9.647773 -4.711962
v -0.534758 9.647774 -4.000000
v -0.534758 9.647773 -4.711962
vn 1.0000 -0.0000 -0.0000
vn 0.7642 -0.6449 -0.0000
vn -0.0000 -0.0000 1.0000
vn -0.6340 0.7733 -0.0000
vn 0.6341 -0.7733 -0.0000
vn -0.7733 -0.6341 -0.0000
vn -0.0000 -1.0000 -0.0000
vn -1.0000 -0.0000 -0.0000
vn -0.7725 -0.6351 -0.0000
vn -0.7722 -0.6354 -0.0000
vn -0.7642 -0.6449 -0.0000
vn 0.6329 -0.7742 -0.0000
vn 0.6340 -0.7733 -0.0000
vn 0.7733 0.6340 -0.0000
vn -0.0000 -0.0000 -1.0000
vn 0.6340 0.7733 -0.0000
vn -0.6341 -0.7733 -0.0000
vn 0.7733 -0.6341 -0.0000
vn 0.7725 -0.6351 -0.0000
vn 0.7722 -0.6354 -0.0000
vn -0.6329 -0.7742 -0.0000
vn -0.6340 -0.7733 -0.0000
vn -0.7733 0.6340 -0.0000
vn 0.6057 0.7957 -0.0000
vn -0.6057 0.7957 -0.0000
vt 0.875000 0.750000
vt 0.875000 0.625000
vt 0.875000 0.750000
vt 0.625000 0.000000
vt 0.375000 0.000000
vt 0.375000 0.125000
vt 0.625000 0.125000
vt 0.625000 1.000000
vt 0.625000 1.000000
vt 0.625000 0.875000
vt 0.375000 0.875000
vt 0.375000 1.000000
vt 0.625000 0.025000
vt 0.625000 0.100000
vt 0.625000 0.075000
vt 0.625000 0.050000
vt 0.625000 0.966367
vt 0.125000 0.625000
vt 0.125000 0.750000
vt 0.250000 0.750000
vt 0.250000 0.625000
vt 0.625000 1.000000
s 0
f 6/1/1 7/2/1 11/2/1 12/1/1
f 1/1/1 5/2/1 7/2/1 6/1/1
f 1/1/1 6/1/1 9/3/1 8/1/1
f 9/3/1 6/1/1 12/1/1 10/3/1
f 14/4/1 13/5/1 16/6/1 17/7/1
f 28/7/2 129/4/2 219/4/2 213/7/2
f 26/8/3 9/9/3 8/8/3 24/8/3
f 2/10/3 3/11/3 13/12/3 14/8/3
f 37/13/4 20/4/4 47/4/4 52/13/4
f 17/7/5 21/7/5 36/14/5 35/15/5 34/16/5 33/13/5 19/4/5 14/4/5
f 23/8/3 25/8/3 26/8/3 24/8/3
f 14/8/6 23/8/6 24/8/6 15/17/6
f 19/4/5 25/4/5 23/4/5 14/4/5
f 38/16/3 34/16/3 50/16/3 53/16/3
f 14/8/3 15/17/3 27/10/3 2/10/3
f 16/18/7 13/19/7 3/20/7 4/21/7
f 27/1/8 6/1/8 7/2/8 30/2/8
f 27/1/8 8/1/8 9/3/8 6/1/8
f 15/1/9 27/1/9 30/2/9 18/2/9
f 24/8/10 8/8/10 27/22/10 15/17/10
f 77/7/11 78/4/11 214/4/11 216/7/11
f 20/4/12 29/4/12 31/4/12 26/4/12
f 26/8/3 31/8/3 10/9/3 9/9/3
f 22/7/12 28/7/12 29/4/12 20/4/12 37/13/12 38/16/12 39/15/12 40/14/12
f 35/15/13 36/14/13 41/14/13 51/15/13
f 34/16/13 35/15/13 51/15/13 50/16/13
f 20/4/4 26/4/4 46/4/4 47/4/4
f 34/16/14 38/16/14 37/13/14 33/13/14
f 42/7/14 44/7/14 43/14/14 41/14/14
f 47/4/4 46/4/4 56/4/4 57/4/4
f 49/13/14 52/13/14 47/4/14 48/4/14
f 54/15/3 51/15/3 59/15/3 61/15/3
f 51/15/14 54/15/14 53/16/14 50/16/14
f 33/13/15 37/13/15 52/13/15 49/13/15
f 25/4/13 19/4/13 48/4/13 45/4/13
f 39/15/4 38/16/4 53/16/4 54/15/4
f 26/8/3 25/8/3 45/8/3 46/8/3
f 36/14/13 21/7/13 42/7/13 41/14/13
f 40/14/4 39/15/4 54/15/4 43/14/4
f 22/7/4 40/14/4 43/14/4 44/7/4
f 19/4/13 33/13/13 49/13/13 48/4/13
f 21/7/15 22/7/15 44/7/15 42/7/15
f 57/4/14 56/4/14 55/4/14 58/4/14
f 60/14/14 62/14/14 61/15/14 59/15/14
f 51/15/13 41/14/13 60/14/13 59/15/13
f 45/4/13 48/4/13 58/4/13 55/4/13
f 41/14/15 43/14/15 62/14/15 60/14/15
f 46/8/3 45/8/3 55/8/3 56/8/3
f 43/14/4 54/15/4 61/15/4 62/14/4
f 48/4/15 47/4/15 57/4/15 58/4/15
f 64/4/8 67/7/8 66/6/8 63/5/8
f 31/4/2 29/4/2 211/4/2 212/4/2
f 76/8/3 74/8/3 8/8/3 9/9/3
f 2/10/3 64/8/3 63/12/3 3/11/3
f 85/13/16 100/13/16 95/4/16 70/4/16
f 67/7/17 64/4/17 69/4/17 81/13/17 82/16/17 83/15/17 84/14/17 71/7/17
f 73/8/3 74/8/3 76/8/3 75/8/3
f 64/8/18 65/17/18 74/8/18 73/8/18
f 69/4/17 64/4/17 73/4/17 75/4/17
f 86/16/3 101/16/3 98/16/3 82/16/3
f 64/8/3 2/10/3 27/10/3 65/17/3
f 66/18/7 4/21/7 3/20/7 63/19/7
f 65/1/19 68/2/19 30/2/19 27/1/19
f 74/8/20 65/17/20 27/22/20 8/8/20
f 117/9/15 170/8/15 222/8/15 218/9/15
f 70/4/21 76/4/21 79/4/21 78/4/21
f 76/8/3 9/9/3 10/9/3 79/8/3
f 72/7/21 88/14/21 87/15/21 86/16/21 85/13/21 70/4/21 78/4/21 77/7/21
f 83/15/22 99/15/22 89/14/22 84/14/22
f 82/16/22 98/16/22 99/15/22 83/15/22
f 70/4/16 95/4/16 94/4/16 76/4/16
f 82/16/23 81/13/23 85/13/23 86/16/23
f 89/14/3 91/14/3 206/14/3 204/14/3
f 95/4/16 105/4/16 104/4/16 94/4/16
f 97/13/23 96/4/23 95/4/23 100/13/23
f 102/15/3 109/15/3 107/15/3 99/15/3
f 99/15/23 98/16/23 101/16/23 102/15/23
f 81/13/15 97/13/15 100/13/15 85/13/15
f 75/4/22 93/4/22 96/4/22 69/4/22
f 87/15/16 102/15/16 101/16/16 86/16/16
f 76/8/3 94/8/3 93/8/3 75/8/3
f 84/14/22 89/14/22 90/7/22 71/7/22
f 88/14/16 91/14/16 102/15/16 87/15/16
f 72/7/16 92/7/16 91/14/16 88/14/16
f 69/4/22 96/4/22 97/13/22 81/13/22
f 71/7/15 90/7/15 92/7/15 72/7/15
f 105/4/23 106/4/23 103/4/23 104/4/23
f 108/14/23 107/15/23 109/15/23 110/14/23
f 99/15/22 107/15/22 108/14/22 89/14/22
f 93/4/22 103/4/22 106/4/22 96/4/22
f 89/14/15 108/14/15 110/14/15 91/14/15
f 94/8/3 104/8/3 103/8/3 93/8/3
f 91/14/16 110/14/16 109/15/16 102/15/16
f 96/4/15 106/4/15 105/4/15 95/4/15
f 114/1/1 118/1/1 11/2/1 7/2/1
f 111/1/1 114/1/1 7/2/1 5/2/1
f 111/1/1 115/1/1 116/3/1 114/1/1
f 116/3/1 117/3/1 118/1/1 114/1/1
f 120/4/1 17/7/1 16/6/1 119/5/1
f 10/9/3 31/8/3 212/8/3 210/9/3
f 127/8/15 125/8/15 115/8/15 116/9/15
f 112/10/15 120/8/15 119/12/15 113/11/15
f 136/13/4 149/13/4 144/4/4 123/4/4
f 17/7/5 120/4/5 122/4/5 132/13/5 133/16/5 134/15/5 135/14/5 21/7/5
f 124/8/15 125/8/15 127/8/15 126/8/15
f 120/8/6 121/17/6 125/8/6 124/8/6
f 122/4/5 120/4/5 124/4/5 126/4/5
f 137/16/15 150/16/15 147/16/15 133/16/15
f 120/8/15 112/10/15 128/10/15 121/17/15
f 16/18/7 4/21/7 113/20/7 119/19/7
f 128/1/8 30/2/8 7/2/8 114/1/8
f 128/1/8 114/1/8 116/3/8 115/1/8
f 121/1/9 18/2/9 30/2/9 128/1/9
f 125/8/10 121/17/10 128/22/10 115/8/10
f 29/4/2 28/7/2 213/7/2 211/4/2
f 123/4/12 127/4/12 130/4/12 129/4/12
f 127/8/15 116/9/15 117/9/15 130/8/15
f 22/7/12 139/14/12 138/15/12 137/16/12 136/13/12 123/4/12 129/4/12 28/7/12
f 134/15/13 148/15/13 140/14/13 135/14/13
f 133/16/13 147/16/13 148/15/13 134/15/13
f 123/4/4 144/4/4 143/4/4 127/4/4
f 133/16/14 132/13/14 136/13/14 137/16/14
f 44/7/3 42/7/3 200/7/3 201/7/3
f 144/4/4 154/4/4 153/4/4 143/4/4
f 146/13/14 145/4/14 144/4/14 149/13/14
f 151/15/15 158/15/15 156/15/15 148/15/15
f 148/15/14 147/16/14 150/16/14 151/15/14
f 132/13/3 146/13/3 149/13/3 136/13/3
f 126/4/13 142/4/13 145/4/13 122/4/13
f 138/15/4 151/15/4 150/16/4 137/16/4
f 127/8/15 143/8/15 142/8/15 126/8/15
f 135/14/13 140/14/13 42/7/13 21/7/13
f 139/14/4 141/14/4 151/15/4 138/15/4
f 22/7/4 44/7/4 141/14/4 139/14/4
f 122/4/13 145/4/13 146/13/13 132/13/13
f 154/4/14 155/4/14 152/4/14 153/4/14
f 157/14/14 156/15/14 158/15/14 159/14/14
f 148/15/13 156/15/13 157/14/13 140/14/13
f 142/4/13 152/4/13 155/4/13 145/4/13
f 140/14/3 157/14/3 159/14/3 141/14/3
f 143/8/15 153/8/15 152/8/15 142/8/15
f 141/14/4 159/14/4 158/15/4 151/15/4
f 145/4/3 155/4/3 154/4/3 144/4/3
f 161/4/8 160/5/8 66/6/8 67/7/8
f 78/4/11 79/4/11 215/4/11 214/4/11
f 168/8/15 116/9/15 115/8/15 166/8/15
f 112/10/15 113/11/15 160/12/15 161/8/15
f 176/13/16 164/4/16 184/4/16 189/13/16
f 67/7/17 71/7/17 175/14/17 174/15/17 173/16/17 172/13/17 163/4/17 161/4/17
f 165/8/15 167/8/15 168/8/15 166/8/15
f 161/8/18 165/8/18 166/8/18 162/17/18
f 163/4/17 167/4/17 165/4/17 161/4/17
f 177/16/15 173/16/15 187/16/15 190/16/15
f 161/8/15 162/17/15 128/10/15 112/10/15
f 66/18/7 160/19/7 113/20/7 4/21/7
f 162/1/19 128/1/19 30/2/19 68/2/19
f 166/8/20 115/8/20 128/22/20 162/17/20
f 170/4/11 169/4/11 221/4/11 222/4/11
f 164/4/21 169/4/21 170/4/21 168/4/21
f 168/8/15 170/8/15 117/9/15 116/9/15
f 72/7/21 77/7/21 169/4/21 164/4/21 176/13/21 177/16/21 178/15/21 179/14/21
f 174/15/22 175/14/22 180/14/22 188/15/22
f 173/16/22 174/15/22 188/15/22 187/16/22
f 164/4/16 168/4/16 183/4/16 184/4/16
f 173/16/23 177/16/23 176/13/23 172/13/23
f 90/7/23 92/7/23 181/14/23 180/14/23
f 184/4/16 183/4/16 193/4/16 194/4/16
f 186/13/23 189/13/23 184/4/23 185/4/23
f 191/15/15 188/15/15 196/15/15 198/15/15
f 188/15/23 191/15/23 190/16/23 187/16/23
f 172/13/3 176/13/3 189/13/3 186/13/3
f 167/4/22 163/4/22 185/4/22 182/4/22
f 178/15/16 177/16/16 190/16/16 191/15/16
f 168/8/15 167/8/15 182/8/15 183/8/15
f 175/14/22 71/7/22 90/7/22 180/14/22
f 179/14/16 178/15/16 191/15/16 181/14/16
f 72/7/16 179/14/16 181/14/16 92/7/16
f 163/4/22 172/13/22 186/13/22 185/4/22
f 194/4/23 193/4/23 192/4/23 195/4/23
f 197/14/23 199/14/23 198/15/23 196/15/23
f 188/15/22 180/14/22 197/14/22 196/15/22
f 182/4/22 185/4/22 195/4/22 192/4/22
f 180/14/3 181/14/3 199/14/3 197/14/3
f 183/8/15 182/8/15 192/8/15 193/8/15
f 181/14/16 191/15/16 198/15/16 199/14/16
f 185/4/3 184/4/3 194/4/3 195/4/3
f 200/7/14 202/14/14 203/14/14 201/7/14
f 141/14/4 44/7/4 201/7/4 203/14/4
f 140/14/15 141/14/15 203/14/15 202/14/15
f 42/7/13 140/14/13 202/14/13 200/7/13
f 205/7/23 204/14/23 206/14/23 207/7/23
f 90/7/22 89/14/22 204/14/22 205/7/22
f 91/14/16 92/7/16 207/7/16 206/14/16
f 92/7/15 90/7/15 205/7/15 207/7/15
f 211/4/24 208/4/24 210/4/24 212/4/24
f 213/7/24 209/7/24 208/4/24 211/4/24
f 214/4/25 215/4/25 210/4/25 208/4/25
f 216/7/25 214/4/25 208/4/25 209/7/25
f 219/4/24 220/4/24 218/4/24 217/4/24
f 213/7/24 219/4/24 217/4/24 209/7/24
f 221/4/25 217/4/25 218/4/25 222/4/25
f 216/7/25 209/7/25 217/4/25 221/4/25
f 129/4/2 130/4/2 220/4/2 219/4/2
f 79/8/3 10/9/3 210/9/3 215/8/3
f 169/4/11 77/7/11 216/7/11 221/4/11
f 130/8/15 117/9/15 218/9/15 220/8/15
l 2 1
l 16 32
l 66 80
l 112 111
l 16 131
l 66 171
o Circle.001
v -0.111931 0.000000 3.595535
v -0.340797 0.000000 3.934474
v -0.161700 0.000000 4.302147
v 0.246262 0.000000 4.330882
v 0.475128 0.000000 3.991943
v 0.296032 0.000000 3.624270
v -0.111931 9.359514 3.595535
v -0.340797 9.206259 3.934474
v -0.161700 9.359514 4.302147
v 0.246262 9.359514 4.330882
v 0.475128 9.156998 3.991943
v 0.296032 9.359514 3.624270
v -4.440030 4.576663 3.800304
v -4.440030 4.678427 4.224540
v -4.440030 4.361910 4.524788
v -4.440030 3.943629 4.400801
v -4.440030 3.841865 3.976564
v -4.440030 4.158382 3.676316
v 4.574361 4.576664 3.800301
v 4.574361 4.678428 4.224537
v 4.574361 4.361910 4.524785
v 4.574361 3.943629 4.400797
v 4.574360 3.841865 3.976562
v 4.574361 4.158382 3.676313
v 2.119104 4.178423 3.550184
v -1.984773 4.178423 3.550185
v -1.984773 4.514330 3.649756
v 2.119104 4.514330 3.649755
v 2.119104 4.005963 4.131991
v -1.984773 4.005963 4.131993
v -1.984773 3.924240 3.791304
v 2.119104 3.924240 3.791303
v 2.119104 4.596053 3.990443
v -1.984773 4.596053 3.990444
v -1.984773 4.341869 4.231563
v 2.119104 4.341870 4.231562
v -4.111930 0.000000 3.595535
v -4.340796 0.000000 3.934474
v -4.161699 0.000000 4.302147
v -3.753737 0.000000 4.330881
v -3.524871 0.000000 3.991943
v -3.703967 0.000000 3.624269
v -4.111930 4.107523 3.595535
v -4.340796 4.107523 3.934474
v -4.161699 4.107523 4.302147
v -3.753737 4.107523 4.330881
v -3.524871 4.107523 3.991943
v -3.703967 4.107523 3.624269
v 3.788069 0.000000 3.595535
v 3.559203 0.000000 3.934474
v 3.738299 0.000000 4.302147
v 4.146262 0.000000 4.330882
v 4.375127 0.000000 3.991943
v 4.196031 0.000000 3.624270
v 3.788069 4.107523 3.595535
v 3.559203 4.107523 3.934474
v 3.738299 4.107523 4.302147
v 4.146262 4.107523 4.330882
v 4.375127 4.107523 3.991943
v 4.196031 4.107523 3.624270
v -3.995041 4.446945 3.769595
v -4.088687 4.522809 3.948078
v -4.015405 4.463442 4.141691
v -3.848478 4.328213 4.156823
v -3.754832 4.252349 3.978340
v -3.828113 4.311715 3.784727
v -0.021039 9.352455 3.769595
v -0.000568 9.569185 3.948077
v -0.041404 9.368952 4.141691
v -0.035045 9.035517 4.156822
v -0.026443 8.854675 3.978340
v -0.014681 9.019019 3.784726
v 3.995041 4.446945 3.769595
v 4.088686 4.522809 3.948077
v 4.015405 4.463442 4.141691
v 3.848478 4.328213 4.156822
v 3.754832 4.252349 3.978340
v 3.828114 4.311715 3.784727
v 0.021039 9.352455 3.769595
v 0.000568 9.569185 3.948077
v 0.041404 9.368952 4.141691
v 0.035045 9.035517 4.156822
v 0.026443 8.854675 3.978340
v 0.014681 9.019019 3.784726
v -0.111931 0.000000 -3.595535
v -0.340797 0.000000 -3.934473
v -0.161700 0.000000 -4.302146
v 0.246262 0.000000 -4.330882
v 0.475128 0.000000 -3.991942
v 0.296031 0.000000 -3.624269
v -0.111931 9.359514 -3.595535
v -0.340797 9.206259 -3.934473
v -0.161700 9.359514 -4.302146
v 0.246262 9.359514 -4.330882
v 0.475128 9.156998 -3.991942
v 0.296031 9.359514 -3.624269
v -4.440030 4.576663 -3.800303
v -4.440030 4.678427 -4.224539
v -4.440030 4.361910 -4.524788
v -4.440030 3.943629 -4.400800
v -4.440031 3.841865 -3.976564
v -4.440030 4.158382 -3.676315
v 4.574360 4.576664 -3.800300
v 4.574359 4.678428 -4.224536
v 4.574360 4.361910 -4.524785
v 4.574360 3.943629 -4.400797
v 4.574360 3.841865 -3.976560
v 4.574360 4.158382 -3.676313
v 2.119103 4.178423 -3.550184
v -1.984773 4.178423 -3.550185
v -1.984773 4.514330 -3.649754
v 2.119103 4.514330 -3.649754
v 2.119103 4.005963 -4.131991
v -1.984773 4.005963 -4.131992
v -1.984773 3.924240 -3.791303
v 2.119103 3.924240 -3.791302
v 2.119103 4.596053 -3.990443
v -1.984773 4.596053 -3.990443
v -1.984773 4.341869 -4.231563
v 2.119103 4.341870 -4.231562
v -4.111929 0.000000 -3.595535
v -4.340796 0.000000 -3.934472
v -4.161699 0.000000 -4.302147
v -3.753737 0.000000 -4.330881
v -3.524871 0.000000 -3.991942
v -3.703967 0.000000 -3.624269
v -4.111929 4.107523 -3.595535
v -4.340796 4.107523 -3.934472
v -4.161699 4.107523 -4.302147
v -3.753737 4.107523 -4.330881
v -3.524871 4.107523 -3.991942
v -3.703967 4.107523 -3.624269
v 3.788069 0.000000 -3.595535
v 3.559201 0.000000 -3.934473
v 3.738298 0.000000 -4.302147
v 4.146260 0.000000 -4.330881
v 4.375127 0.000000 -3.991942
v 4.196030 0.000000 -3.624269
v 3.788069 4.107523 -3.595535
v 3.559201 4.107523 -3.934473
v 3.738298 4.107523 -4.302147
v 4.146260 4.107523 -4.330881
v 4.375127 4.107523 -3.991942
v 4.196030 4.107523 -3.624269
v -3.995040 4.446945 -3.769594
v -4.088687 4.522809 -3.948077
v -4.015405 4.463442 -4.141690
v -3.848477 4.328213 -4.156822
v -3.754832 4.252349 -3.978339
v -3.828113 4.311715 -3.784726
v -0.021039 9.352455 -3.769594
v -0.000568 9.569185 -3.948076
v -0.041404 9.368952 -4.141690
v -0.035045 9.035517 -4.156822
v -0.026443 8.854675 -3.978339
v -0.014681 9.019019 -3.784726
v 3.995040 4.446945 -3.769594
v 4.088685 4.522809 -3.948077
v 4.015405 4.463442 -4.141690
v 3.848477 4.328213 -4.156822
v 3.754831 4.252349 -3.978340
v 3.828113 4.311715 -3.784726
v 0.021039 9.352455 -3.769595
v 0.000567 9.569185 -3.948077
v 0.041403 9.368952 -4.141690
v 0.035045 9.035517 -4.156821
v 0.026443 8.854675 -3.978339
v 0.014681 9.019019 -3.784726
vn 0.0703 -0.0000 -0.9975
vn 0.8288 -0.0000 0.5596
vn -0.8990 -0.0000 0.4379
vn 0.8990 -0.0000 -0.4379
vn -0.0703 -0.0000 0.9975
vn -0.8288 -0.0000 -0.5596
vn -0.0316 -0.6879 -0.7251
vn 0.1115 -0.2824 0.9528
vn 0.0919 0.6853 0.7224
vn -0.0515 0.2838 -0.9575
vn 0.0502 -0.9712 0.2330
vn -0.1115 -0.2824 0.9528
vn -0.0104 0.9724 -0.2332
vn -0.0919 0.6853 0.7224
vn 0.0104 0.9724 -0.2332
vn -1.0000 -0.0000 -0.0000
vn -0.0502 -0.9712 0.2330
vn 0.0515 0.2838 -0.9575
vn -0.0000 0.9724 -0.2333
vn -0.0000 -0.2842 0.9588
vn -0.0000 -0.6882 -0.7255
vn -0.0000 0.6882 0.7255
vn -0.0000 -0.9724 0.2333
vn -0.0000 0.2842 -0.9588
vn 0.0316 -0.6879 -0.7251
vn 1.0000 -0.0000 -0.0000
vn 0.0546 -0.0442 -0.9975
vn 0.6440 -0.5217 0.5596
vn -0.6986 0.5659 0.4379
vn 0.6986 -0.5659 -0.4379
vn -0.0546 0.0442 0.9975
vn -0.6440 0.5217 -0.5596
vn -0.0546 -0.0442 -0.9975
vn -0.6440 -0.5217 0.5596
vn 0.6986 0.5659 0.4379
vn -0.6986 -0.5659 -0.4379
vn 0.0546 0.0442 0.9975
vn 0.6440 0.5217 -0.5596
vn 0.0703 -0.0000 0.9975
vn 0.8288 -0.0000 -0.5596
vn -0.8990 -0.0000 -0.4379
vn 0.8990 -0.0000 0.4379
vn -0.0703 -0.0000 -0.9975
vn -0.8288 -0.0000 0.5596
vn -0.0316 -0.6879 0.7251
vn 0.1115 -0.2824 -0.9528
vn 0.0919 0.6853 -0.7224
vn -0.0515 0.2838 0.9575
vn 0.0502 -0.9712 -0.2330
vn -0.1115 -0.2824 -0.9528
vn -0.0104 0.9724 0.2332
vn -0.0919 0.6853 -0.7224
vn 0.0104 0.9724 0.2332
vn -0.0502 -0.9712 -0.2330
vn 0.0515 0.2838 0.9575
vn -0.0000 0.9724 0.2333
vn -0.0000 -0.2842 -0.9588
vn -0.0000 -0.6882 0.7255
vn -0.0000 0.6882 -0.7255
vn -0.0000 -0.9724 -0.2333
vn -0.0000 0.2842 0.9588
vn 0.0316 -0.6879 0.7251
vn 0.0546 -0.0442 0.9975
vn 0.6440 -0.5217 -0.5596
vn -0.6986 0.5659 -0.4379
vn 0.6986 -0.5659 0.4379
vn -0.0546 0.0442 -0.9975
vn -0.6440 0.5217 0.5596
vn -0.0546 -0.0442 0.9975
vn -0.6440 -0.5217 -0.5596
vn 0.6986 0.5659 -0.4379
vn -0.6986 -0.5659 0.4379
vn 0.0546 0.0442 -0.9975
vn 0.6440 0.5217 0.5596
vt 0.000000 0.000000
s 0
f 223/23/26 229/23/26 234/23/26 228/23/26
f 227/23/27 233/23/27 232/23/27 226/23/27
f 225/23/28 231/23/28 230/23/28 224/23/28
f 228/23/29 234/23/29 233/23/29 227/23/29
f 226/23/30 232/23/30 231/23/30 225/23/30
f 224/23/31 230/23/31 229/23/31 223/23/31
f 240/23/32 248/23/32 253/23/32 239/23/32
f 238/23/33 252/23/33 257/23/33 237/23/33
f 237/23/34 257/23/34 256/23/34 236/23/34
f 235/23/35 249/23/35 248/23/35 240/23/35
f 239/23/36 253/23/36 252/23/36 238/23/36
f 251/23/37 244/23/37 243/23/37 258/23/37
f 255/23/38 242/23/38 241/23/38 250/23/38
f 258/23/39 243/23/39 242/23/39 255/23/39
f 236/23/40 256/23/40 249/23/40 235/23/40
f 236/23/41 235/23/41 240/23/41 239/23/41 238/23/41 237/23/41
f 254/23/42 245/23/42 244/23/42 251/23/42
f 250/23/43 241/23/43 246/23/43 247/23/43
f 250/23/44 249/23/44 256/23/44 255/23/44
f 258/23/45 257/23/45 252/23/45 251/23/45
f 254/23/46 253/23/46 248/23/46 247/23/46
f 255/23/47 256/23/47 257/23/47 258/23/47
f 251/23/48 252/23/48 253/23/48 254/23/48
f 247/23/49 248/23/49 249/23/49 250/23/49
f 247/23/50 246/23/50 245/23/50 254/23/50
f 242/23/51 243/23/51 244/23/51 245/23/51 246/23/51 241/23/51
f 259/23/26 265/23/26 270/23/26 264/23/26
f 263/23/27 269/23/27 268/23/27 262/23/27
f 261/23/28 267/23/28 266/23/28 260/23/28
f 264/23/29 270/23/29 269/23/29 263/23/29
f 262/23/30 268/23/30 267/23/30 261/23/30
f 260/23/31 266/23/31 265/23/31 259/23/31
f 271/23/26 277/23/26 282/23/26 276/23/26
f 275/23/27 281/23/27 280/23/27 274/23/27
f 273/23/28 279/23/28 278/23/28 272/23/28
f 276/23/29 282/23/29 281/23/29 275/23/29
f 274/23/30 280/23/30 279/23/30 273/23/30
f 272/23/31 278/23/31 277/23/31 271/23/31
f 283/23/52 289/23/52 294/23/52 288/23/52
f 287/23/53 293/23/53 292/23/53 286/23/53
f 285/23/54 291/23/54 290/23/54 284/23/54
f 288/23/55 294/23/55 293/23/55 287/23/55
f 286/23/56 292/23/56 291/23/56 285/23/56
f 284/23/57 290/23/57 289/23/57 283/23/57
f 295/23/58 300/23/58 306/23/58 301/23/58
f 299/23/59 298/23/59 304/23/59 305/23/59
f 297/23/60 296/23/60 302/23/60 303/23/60
f 300/23/61 299/23/61 305/23/61 306/23/61
f 298/23/62 297/23/62 303/23/62 304/23/62
f 296/23/63 295/23/63 301/23/63 302/23/63
f 307/23/64 312/23/64 318/23/64 313/23/64
f 311/23/65 310/23/65 316/23/65 317/23/65
f 309/23/66 308/23/66 314/23/66 315/23/66
f 312/23/67 311/23/67 317/23/67 318/23/67
f 310/23/68 309/23/68 315/23/68 316/23/68
f 308/23/69 307/23/69 313/23/69 314/23/69
f 324/23/70 323/23/70 337/23/70 332/23/70
f 322/23/71 321/23/71 341/23/71 336/23/71
f 321/23/72 320/23/72 340/23/72 341/23/72
f 319/23/73 324/23/73 332/23/73 333/23/73
f 323/23/74 322/23/74 336/23/74 337/23/74
f 335/23/75 342/23/75 327/23/75 328/23/75
f 339/23/76 334/23/76 325/23/76 326/23/76
f 342/23/77 339/23/77 326/23/77 327/23/77
f 320/23/78 319/23/78 333/23/78 340/23/78
f 320/23/41 321/23/41 322/23/41 323/23/41 324/23/41 319/23/41
f 338/23/79 335/23/79 328/23/79 329/23/79
f 334/23/80 331/23/80 330/23/80 325/23/80
f 334/23/81 339/23/81 340/23/81 333/23/81
f 342/23/82 335/23/82 336/23/82 341/23/82
f 338/23/83 331/23/83 332/23/83 337/23/83
f 339/23/84 342/23/84 341/23/84 340/23/84
f 335/23/85 338/23/85 337/23/85 336/23/85
f 331/23/86 334/23/86 333/23/86 332/23/86
f 331/23/87 338/23/87 329/23/87 330/23/87
f 326/23/51 325/23/51 330/23/51 329/23/51 328/23/51 327/23/51
f 343/23/64 348/23/64 354/23/64 349/23/64
f 347/23/65 346/23/65 352/23/65 353/23/65
f 345/23/66 344/23/66 350/23/66 351/23/66
f 348/23/67 347/23/67 353/23/67 354/23/67
f 346/23/68 345/23/68 351/23/68 352/23/68
f 344/23/69 343/23/69 349/23/69 350/23/69
f 355/23/64 360/23/64 366/23/64 361/23/64
f 359/23/65 358/23/65 364/23/65 365/23/65
f 357/23/66 356/23/66 362/23/66 363/23/66
f 360/23/67 359/23/67 365/23/67 366/23/67
f 358/23/68 357/23/68 363/23/68 364/23/68
f 356/23/69 355/23/69 361/23/69 362/23/69
f 367/23/88 372/23/88 378/23/88 373/23/88
f 371/23/89 370/23/89 376/23/89 377/23/89
f 369/23/90 368/23/90 374/23/90 375/23/90
f 372/23/91 371/23/91 377/23/91 378/23/91
f 370/23/92 369/23/92 375/23/92 376/23/92
f 368/23/93 367/23/93 373/23/93 374/23/93
f 379/23/94 385/23/94 390/23/94 384/23/94
f 383/23/95 389/23/95 388/23/95 382/23/95
f 381/23/96 387/23/96 386/23/96 380/23/96
f 384/23/97 390/23/97 389/23/97 383/23/97
f 382/23/98 388/23/98 387/23/98 381/23/98
f 380/23/99 386/23/99 385/23/99 379/23/99
o Plane
v -10.038615 3.593543 4.300000
v -3.844714 4.808643 4.300000
v -10.038615 3.593543 -4.300000
v -3.844714 4.808643 -4.300000
v -9.994820 3.370297 -4.300000
v -9.994820 3.370297 4.300000
v -3.800919 4.585397 4.300000
v -3.800919 4.585397 -4.300000
v -10.038615 3.593543 -3.518182
v -10.038615 3.593543 -2.736364
v -10.038615 3.593543 -1.954546
v -10.038615 3.593543 -1.172727
v -10.038615 3.593543 -0.390909
v -10.038615 3.593543 0.390909
v -10.038615 3.593543 1.172727
v -10.038615 3.593543 1.954545
v -10.038615 3.593543 2.736364
v -10.038615 3.593543 3.518182
v -3.844714 4.808643 3.518182
v -3.844714 4.808643 2.736364
v -3.844714 4.808643 1.954546
v -3.844714 4.808643 1.172727
v -3.844714 4.808643 0.390909
v -3.844714 4.808643 -0.390909
v -3.844714 4.808643 -1.172727
v -3.844714 4.808643 -1.954545
v -3.844714 4.808643 -2.736364
v -3.844714 4.808643 -3.518182
v -10.058074 3.692731 3.518182
v -10.058074 3.692731 4.300000
v -3.864173 4.907831 -3.518182
v -3.864173 4.907831 -4.300000
v -10.058074 3.692731 -4.300000
v -10.058074 3.692731 -3.518182
v -10.058074 3.692731 -2.736364
v -10.058074 3.692731 -1.954546
v -10.058074 3.692731 -1.172727
v -10.058074 3.692731 -0.390909
v -10.058074 3.692731 0.390909
v -10.058074 3.692731 1.172727
v -10.058074 3.692731 1.954545
v -10.058074 3.692731 2.736364
v -3.864173 4.907831 4.300000
v -3.864173 4.907831 3.518182
v -3.864173 4.907831 2.736364
v -3.864173 4.907831 1.954546
v -3.864173 4.907831 1.172727
v -3.864173 4.907831 0.390909
v -3.864173 4.907831 -0.390909
v -3.864173 4.907831 -1.172727
v -3.864173 4.907831 -1.954545
v -3.864173 4.907831 -2.736364
v -3.883229 5.004971 -3.518182
v -3.883229 5.004971 -4.300000
v -10.077130 3.789871 -4.300000
v -10.077130 3.789871 -3.518182
v -10.077130 3.789871 -2.736364
v -10.077130 3.789871 -1.954546
v -10.077130 3.789871 -1.172727
v -10.077130 3.789871 -0.390909
v -10.077130 3.789871 0.390909
v -10.077130 3.789871 1.172727
v -10.077130 3.789871 1.954545
v -10.077130 3.789871 2.736364
v -10.077130 3.789871 3.518182
v -3.883229 5.004971 3.518182
v -3.883229 5.004971 2.736364
v -3.883229 5.004971 1.954546
v -3.883229 5.004971 1.172727
v -3.883229 5.004971 0.390909
v -3.883229 5.004971 -0.390909
v -3.883229 5.004971 -1.172727
v -3.883229 5.004971 -1.954545
v -3.883229 5.004971 -2.736364
v -10.092659 3.869028 -1.954546
v -10.092659 3.869028 -1.172727
v -10.092659 3.869028 0.390909
v -10.092659 3.869028 1.172727
v -3.898758 5.084128 1.172727
v -3.898758 5.084128 0.390909
v -3.898758 5.084128 -1.172727
v -3.898758 5.084128 -1.954545
vn -0.0000 -0.0000 -1.0000
vn 0.1925 -0.9813 -0.0000
vn 0.9813 0.1925 -0.0000
vn -0.9813 -0.1925 -0.0000
vn -0.0000 -0.0000 1.0000
vn -0.1925 0.9813 -0.0000
vt 1.000000 1.000000
vt 0.000000 1.000000
vt 0.000000 0.000000
vt 1.000000 0.000000
vt 1.000000 0.909091
vt 1.000000 0.818182
vt 1.000000 0.727273
vt 1.000000 0.636364
vt 1.000000 0.545455
vt 1.000000 0.454545
vt 1.000000 0.363636
vt 1.000000 0.272727
vt 1.000000 0.181818
vt 1.000000 0.090909
vt 0.000000 0.090909
vt 0.000000 0.181818
vt 0.000000 0.272727
vt 0.000000 0.363636
vt 0.000000 0.454545
vt 0.000000 0.545455
vt 0.000000 0.636364
vt 0.000000 0.727273
vt 0.000000 0.818182
vt 0.000000 0.909091
s 0
f 394/24/100 393/25/100 423/25/100 422/24/100
f 396/26/101 395/25/101 398/24/101 397/27/101
f 392/27/102 397/27/102 398/24/102 394/24/102 418/28/102 417/29/102 416/30/102 415/31/102 414/32/102 413/33/102 412/34/102 411/35/102 410/36/102 409/37/102
f 393/25/103 395/25/103 396/26/103 391/26/103 408/38/103 407/39/103 406/40/103 405/41/103 404/42/103 403/43/103 402/44/103 401/45/103 400/46/103 399/47/103
f 394/24/100 398/24/100 395/25/100 393/25/100
f 391/26/104 396/26/104 397/27/104 392/27/104
f 404/42/103 405/41/103 430/41/103 429/42/103
f 418/28/102 394/24/102 422/24/102 421/28/102
f 410/36/102 411/35/102 436/35/102 435/36/102
f 417/29/102 418/28/102 421/28/102 442/29/102
f 403/43/103 404/42/103 429/42/103 428/43/103
f 408/38/103 391/26/103 420/26/103 419/38/103
f 409/37/102 410/36/102 435/36/102 434/37/102
f 416/30/102 417/29/102 442/29/102 441/30/102
f 402/44/103 403/43/103 428/43/103 427/44/103
f 392/27/102 409/37/102 434/37/102 433/27/102
f 420/26/105 433/27/105 434/37/105 419/38/105
f 435/36/100 432/39/100 454/39/100 457/36/100
f 442/29/100 425/46/100 447/46/100 464/29/100
f 432/39/105 435/36/105 436/35/105 431/40/105
f 437/34/102 438/33/102 460/33/102 459/34/102
f 423/25/103 424/47/103 446/47/103 445/25/103
f 429/42/105 438/33/105 439/32/105 428/43/105
f 419/38/104 434/37/104 456/37/104 455/38/104
f 430/41/103 431/40/103 453/40/103 452/41/103
f 436/35/102 437/34/102 459/34/102 458/35/102
f 425/46/105 442/29/105 421/28/105 424/47/105
f 411/35/102 412/34/102 437/34/102 436/35/102
f 405/41/103 406/40/103 431/40/103 430/41/103
f 393/25/103 399/47/103 424/47/103 423/25/103
f 412/34/102 413/33/102 438/33/102 437/34/102
f 406/40/103 407/39/103 432/39/103 431/40/103
f 399/47/103 400/46/103 425/46/103 424/47/103
f 413/33/102 414/32/102 439/32/102 438/33/102
f 407/39/103 408/38/103 419/38/103 432/39/103
f 400/46/103 401/45/103 426/45/103 425/46/103
f 414/32/102 415/31/102 440/31/102 439/32/102
f 391/26/104 392/27/104 433/27/104 420/26/104
f 401/45/103 402/44/103 427/44/103 426/45/103
f 415/31/102 416/30/102 441/30/102 440/31/102
f 446/47/105 443/28/105 444/24/105 445/25/105
f 455/38/105 456/37/105 457/36/105 454/39/105
f 453/40/105 458/35/105 459/34/105 452/41/105
f 451/42/103 452/41/103 468/41/103 467/42/103
f 450/43/105 461/32/105 462/31/105 449/44/105
f 452/41/104 459/34/104 469/34/104 468/41/104
f 448/45/105 463/30/105 464/29/105 447/46/105
f 424/47/104 421/28/104 443/28/104 446/47/104
f 432/39/103 419/38/103 455/38/103 454/39/103
f 431/40/104 436/35/104 458/35/104 453/40/104
f 425/46/103 426/45/103 448/45/103 447/46/103
f 439/32/102 440/31/102 462/31/102 461/32/102
f 426/45/103 427/44/103 449/44/103 448/45/103
f 440/31/102 441/30/102 463/30/102 462/31/102
f 438/33/100 429/42/100 451/42/100 460/33/100
f 427/44/103 428/43/103 450/43/103 449/44/103
f 441/30/102 442/29/102 464/29/102 463/30/102
f 434/37/102 435/36/102 457/36/102 456/37/102
f 428/43/104 439/32/104 461/32/104 450/43/104
f 429/42/103 430/41/103 452/41/103 451/42/103
f 422/24/100 423/25/100 445/25/100 444/24/100
f 421/28/102 422/24/102 444/24/102 443/28/102
f 468/41/105 469/34/105 470/33/105 467/42/105
f 466/44/105 471/31/105 472/30/105 465/45/105
f 448/45/103 449/44/103 466/44/103 465/45/103
f 462/31/102 463/30/102 472/30/102 471/31/102
f 449/44/104 462/31/104 471/31/104 466/44/104
f 459/34/102 460/33/102 470/33/102 469/34/102
f 460/33/100 451/42/100 467/42/100 470/33/100
f 463/30/100 448/45/100 465/45/100 472/30/100
o Plane.001
v 8.100107 3.973833 4.300000
v 3.844713 4.808643 4.300000
v 8.100107 3.973833 -4.300000
v 3.844713 4.808643 -4.300000
v 8.056311 3.750588 -4.300000
v 8.056312 3.750588 4.300000
v 3.800918 4.585397 4.300000
v 3.800917 4.585397 -4.300000
v 8.100107 3.973833 -3.518182
v 8.100107 3.973833 -2.736364
v 8.100107 3.973833 -1.954545
v 8.100107 3.973833 -1.172727
v 8.100107 3.973833 -0.390909
v 8.100107 3.973833 0.390909
v 8.100107 3.973833 1.172727
v 8.100107 3.973833 1.954545
v 8.100107 3.973833 2.736364
v 8.100107 3.973833 3.518182
v 3.844713 4.808643 3.518182
v 3.844713 4.808643 2.736364
v 3.844713 4.808643 1.954545
v 3.844713 4.808643 1.172727
v 3.844713 4.808643 0.390909
v 3.844713 4.808643 -0.390909
v 3.844713 4.808643 -1.172727
v 3.844713 4.808643 -1.954546
v 3.844713 4.808643 -2.736364
v 3.844713 4.808643 -3.518182
v 3.853762 4.854770 -1.954546
v 3.853762 4.854770 -1.172727
v 8.109157 4.019959 -1.172727
v 8.109157 4.019959 -1.954545
v 8.127011 4.110975 2.736364
v 8.127011 4.110975 1.954545
v 3.871618 4.945785 1.172727
v 8.127011 4.110975 1.172727
v 3.871618 4.945785 1.954545
v 3.871618 4.945785 2.736364
v 3.871618 4.945785 -1.954546
v 8.127011 4.110975 -1.954545
v 3.871618 4.945785 -2.736364
v 8.127011 4.110975 -2.736364
v 3.857959 4.876159 -2.736364
v 3.857959 4.876159 -1.954546
v 3.857959 4.876159 -1.172727
v 3.857959 4.876159 -0.390909
v 3.857959 4.876159 0.390909
v 3.857959 4.876159 1.172727
v 3.857959 4.876159 1.954545
v 3.857959 4.876159 2.736364
v 3.857959 4.876159 3.518182
v 3.857959 4.876159 4.300000
v 8.113352 4.041349 2.736364
v 8.113352 4.041349 1.954545
v 8.113352 4.041349 1.172727
v 8.113352 4.041349 0.390909
v 8.113352 4.041349 -0.390909
v 8.113352 4.041349 -1.172727
v 8.113352 4.041349 -1.954545
v 8.113353 4.041349 -2.736364
v 8.113353 4.041349 -3.518182
v 8.113353 4.041349 -4.300000
v 3.857959 4.876159 -4.300000
v 3.857959 4.876159 -3.518182
v 8.113352 4.041349 4.300000
v 8.113352 4.041349 3.518182
v 8.115604 4.052829 2.736364
v 8.115604 4.052829 3.518182
v 3.860211 4.887639 3.518182
v 3.860211 4.887639 2.736364
v 8.133734 4.145242 1.172727
v 8.133734 4.145242 1.954545
v 3.878340 4.980052 1.954545
v 3.878340 4.980052 1.172727
vn 0.1925 0.9813 -0.0000
vn -0.1925 -0.9813 -0.0000
vn -0.9813 0.1925 -0.0000
vn 0.9813 -0.1925 -0.0000
vn -0.0000 -0.0000 -1.0000
vn -0.0000 -0.0000 1.0000
vt 0.312970 0.000000
vt 0.312970 0.090909
vt 1.000000 0.090909
vt 1.000000 0.000000
vt 0.312970 0.000000
vt 1.000000 1.000000
vt 0.312970 1.000000
vt 1.000000 0.181818
vt 1.000000 0.272727
vt 1.000000 0.363636
vt 1.000000 0.454545
vt 1.000000 0.545455
vt 1.000000 0.636364
vt 1.000000 0.727273
vt 1.000000 0.818182
vt 1.000000 0.909091
vt 0.312970 1.000000
vt 0.312970 0.909091
vt 0.312970 0.818182
vt 0.312970 0.727273
vt 0.312970 0.636364
vt 0.312970 0.545455
vt 0.312970 0.454545
vt 0.312970 0.363636
vt 0.312970 0.272727
vt 0.312970 0.181818
s 0
f 537/48/106 538/49/106 523/50/106 524/51/106
f 478/52/107 479/51/107 480/53/107 477/54/107
f 474/51/108 491/50/108 492/55/108 493/56/108 494/57/108 495/58/108 496/59/108 497/60/108 498/61/108 499/62/108 500/63/108 476/53/108 480/53/108 479/51/108
f 475/64/109 481/65/109 482/66/109 483/67/109 484/68/109 485/69/109 486/70/109 487/71/109 488/72/109 489/73/109 490/49/109 473/48/109 478/52/109 477/54/109
f 476/53/110 475/64/110 477/54/110 480/53/110
f 473/48/111 474/51/111 479/51/111 478/52/111
f 520/57/108 521/56/108 509/56/108 507/57/108
f 486/70/110 495/58/110 519/58/110 528/70/110
f 495/58/108 494/57/108 520/57/108 519/58/108
f 498/61/111 483/67/111 531/67/111 516/61/111
f 491/50/111 490/49/111 540/49/111 541/50/111
f 500/63/111 481/65/111 533/65/111 536/63/111
f 494/57/108 493/56/108 521/56/108 520/57/108
f 489/73/109 488/72/109 526/72/109 525/73/109
f 486/70/106 485/69/106 496/59/106 495/58/106
f 481/65/109 475/64/109 534/64/109 533/65/109
f 483/67/110 498/61/110 501/61/110 504/67/110
f 497/60/111 484/68/111 503/68/111 502/60/111
f 484/68/109 483/67/109 504/67/109 503/68/109
f 503/68/106 504/67/106 501/61/106 502/60/106
f 521/56/108 522/55/108 510/55/108 509/56/108
f 522/55/111 525/73/111 505/73/111 510/55/111
f 516/61/111 531/67/111 512/67/111 511/61/111
f 498/61/108 497/60/108 502/60/108 501/61/108
f 515/62/108 516/61/108 511/61/108 513/62/108
f 532/66/110 515/62/110 513/62/110 514/66/110
f 526/72/109 527/71/109 508/71/109 506/72/109
f 505/73/106 506/72/106 509/56/106 510/55/106
f 508/71/110 507/57/110 546/57/110 543/71/110
f 512/67/106 514/66/106 513/62/106 511/61/106
f 487/71/109 486/70/109 528/70/109 527/71/109
f 499/62/108 498/61/108 516/61/108 515/62/108
f 490/49/110 491/50/110 523/50/110 538/49/110
f 493/56/108 492/55/108 522/55/108 521/56/108
f 491/50/108 474/51/108 524/51/108 523/50/108
f 484/68/110 497/60/110 517/60/110 530/68/110
f 476/53/108 500/63/108 536/63/108 535/53/108
f 482/66/110 499/62/110 515/62/110 532/66/110
f 474/51/111 473/48/111 537/48/111 524/51/111
f 485/69/109 484/68/109 530/68/109 529/69/109
f 497/60/108 496/59/108 518/59/108 517/60/108
f 473/48/109 490/49/109 538/49/109 537/48/109
f 483/67/109 482/66/109 532/66/109 531/67/109
f 482/66/106 481/65/106 500/63/106 499/62/106
f 475/64/110 476/53/110 535/53/110 534/64/110
f 492/55/111 489/73/111 525/73/111 522/55/111
f 496/59/111 485/69/111 529/69/111 518/59/111
f 533/65/106 534/64/106 535/53/106 536/63/106
f 527/71/110 520/57/110 507/57/110 508/71/110
f 529/69/106 530/68/106 517/60/106 518/59/106
f 527/71/106 528/70/106 519/58/106 520/57/106
f 531/67/109 532/66/109 514/66/109 512/67/109
f 525/73/109 526/72/109 506/72/109 505/73/109
f 488/72/109 487/71/109 527/71/109 526/72/109
f 540/49/106 539/73/106 542/55/106 541/50/106
f 490/49/109 489/73/109 539/73/109 540/49/109
f 492/55/108 491/50/108 541/50/108 542/55/108
f 489/73/110 492/55/110 542/55/110 539/73/110
f 544/72/106 543/71/106 546/57/106 545/56/106
f 507/57/108 509/56/108 545/56/108 546/57/108
f 506/72/109 508/71/109 543/71/109 544/72/109
f 509/56/111 506/72/111 544/72/111 545/56/111
o Cube.001
v 7.539820 -0.027735 3.975917
v 7.539820 3.892770 3.975917
v 7.539820 -0.027735 3.698992
v 7.539820 3.892770 3.698992
v 7.816744 -0.027735 3.975917
v 7.816744 3.892770 3.975917
v 7.816744 -0.027735 3.698992
v 7.816744 3.892770 3.698992
v 7.539819 -0.027735 -3.671611
v 7.539819 3.892770 -3.671611
v 7.539819 -0.027735 -3.948536
v 7.539819 3.892770 -3.948536
v 7.816744 -0.027735 -3.671611
v 7.816744 3.892770 -3.671611
v 7.816744 -0.027735 -3.948536
v 7.816744 3.892770 -3.948536
v 7.273005 4.026158 3.960195
v 4.189811 4.026158 3.960194
v 7.273005 4.026158 3.730165
v 4.189811 4.026158 3.730165
v 7.734706 3.749233 3.960195
v 4.189811 3.749234 3.960194
v 7.734706 3.749233 3.730165
v 4.189811 3.749234 3.730165
v 7.273005 4.026158 -3.705494
v 4.189811 4.026158 -3.705495
v 7.273005 4.026158 -3.935524
v 4.189811 4.026158 -3.935524
v 7.734706 3.749233 -3.705494
v 4.189811 3.749234 -3.705495
v 7.734706 3.749233 -3.935524
v 4.189811 3.749234 -3.935524
v 7.652620 3.260026 3.917767
v 7.067888 3.844758 3.917767
v 7.652620 3.260026 3.764951
v 7.067888 3.844758 3.764951
v 7.631109 2.910186 3.917767
v 6.714246 3.827049 3.917767
v 7.631109 2.910186 3.764951
v 6.714246 3.827049 3.764951
v 7.652620 3.260026 -3.739410
v 7.067888 3.844758 -3.739410
v 7.652620 3.260026 -3.892227
v 7.067888 3.844758 -3.892227
v 7.631109 2.910186 -3.739410
v 6.714246 3.827049 -3.739410
v 7.631109 2.910186 -3.892227
v 6.714246 3.827049 -3.892227
vn -1.0000 -0.0000 -0.0000
vn -0.0000 -0.0000 -1.0000
vn 1.0000 -0.0000 -0.0000
vn -0.0000 -0.0000 1.0000
vn -0.0000 -1.0000 -0.0000
vn -0.0000 1.0000 -0.0000
vn 0.5144 0.8576 -0.0000
vn 0.7071 0.7071 -0.0000
vn -0.7071 -0.7071 -0.0000
vt 0.375000 0.000000
vt 0.625000 0.000000
vt 0.625000 0.250000
vt 0.375000 0.250000
vt 0.625000 0.500000
vt 0.375000 0.500000
vt 0.625000 0.750000
vt 0.375000 0.750000
vt 0.625000 1.000000
vt 0.375000 1.000000
vt 0.125000 0.500000
vt 0.125000 0.750000
vt 0.875000 0.500000
vt 0.875000 0.750000
vt 0.395682 0.000000
vt 0.395682 0.250000
vt 0.395682 1.000000
vt 0.424289 0.000000
vt 0.424289 0.250000
vt 0.599849 0.250000
vt 0.599849 0.000000
vt 0.424289 1.000000
vt 0.599849 1.000000
s 0
f 547/74/112 548/75/112 550/76/112 549/77/112
f 549/77/113 550/76/113 554/78/113 553/79/113
f 553/79/114 554/78/114 552/80/114 551/81/114
f 551/81/115 552/80/115 548/82/115 547/83/115
f 549/84/116 553/79/116 551/81/116 547/85/116
f 554/78/117 550/86/117 548/87/117 552/80/117
f 555/74/112 556/75/112 558/76/112 557/77/112
f 557/77/113 558/76/113 562/78/113 561/79/113
f 561/79/114 562/78/114 560/80/114 559/81/114
f 559/81/115 560/80/115 556/82/115 555/83/115
f 557/84/116 561/79/116 559/81/116 555/85/116
f 562/78/117 558/86/117 556/87/117 560/80/117
f 563/88/117 565/89/117 566/76/117 564/75/117
f 565/89/113 569/79/113 570/78/113 566/76/113
f 569/79/116 567/81/116 568/80/116 570/78/116
f 567/81/115 563/90/115 564/82/115 568/80/115
f 565/84/118 563/85/118 567/81/118 569/79/118
f 570/78/112 568/80/112 564/87/112 566/86/112
f 571/88/117 573/89/117 574/76/117 572/75/117
f 573/89/113 577/79/113 578/78/113 574/76/113
f 577/79/116 575/81/116 576/80/116 578/78/116
f 575/81/115 571/90/115 572/82/115 576/80/115
f 573/84/118 571/85/118 575/81/118 577/79/118
f 578/78/112 576/80/112 572/87/112 574/86/112
f 579/91/119 581/92/119 582/93/119 580/94/119
f 581/92/113 585/79/113 586/78/113 582/93/113
f 585/79/120 583/81/120 584/80/120 586/78/120
f 583/81/115 579/95/115 580/96/115 584/80/115
f 587/91/119 589/92/119 590/93/119 588/94/119
f 589/92/113 593/79/113 594/78/113 590/93/113
f 593/79/120 591/81/120 592/80/120 594/78/120
f 591/81/115 587/95/115 588/96/115 592/80/115
o Cube.005
v -9.036736 3.751800 3.933418
v -4.189812 3.751801 3.933417
v -9.036736 3.751800 3.703388
v -4.189812 3.751801 3.703387
v -9.498437 3.474875 3.933418
v -4.189812 3.474876 3.933417
v -9.498437 3.474875 3.703388
v -4.189812 3.474876 3.703387
v -9.756535 -0.027735 -3.645690
v -9.756535 3.566153 -3.645690
v -9.756535 -0.027735 -3.974456
v -9.756535 3.566153 -3.974456
v -9.427769 -0.027735 -3.645690
v -9.427769 3.566153 -3.645690
v -9.427769 -0.027735 -3.974456
v -9.427769 3.566153 -3.974456
v -9.756536 -0.027735 3.980673
v -9.756536 3.566153 3.980673
v -9.756536 -0.027735 3.651907
v -9.756536 3.566153 3.651907
v -9.427770 -0.027735 3.980673
v -9.427770 3.566153 3.980673
v -9.427770 -0.027735 3.651907
v -9.427770 3.566153 3.651907
v -9.036736 3.751800 -3.699880
v -4.189812 3.751801 -3.699881
v -9.036736 3.751800 -3.929910
v -4.189812 3.751801 -3.929910
v -9.498437 3.474875 -3.699880
v -4.189812 3.474876 -3.699881
v -9.498437 3.474875 -3.929910
v -4.189812 3.474876 -3.929910
v -9.508371 2.990103 3.892699
v -8.923640 3.574834 3.892698
v -9.508371 2.990103 3.739882
v -8.923640 3.574834 3.739882
v -9.486859 2.640262 3.892699
v -8.569997 3.557125 3.892698
v -9.486859 2.640262 3.739882
v -8.569997 3.557125 3.739882
v -9.508370 2.990103 -3.734547
v -8.923639 3.574834 -3.734547
v -9.508370 2.990103 -3.887364
v -8.923639 3.574834 -3.887365
v -9.486858 2.640262 -3.734547
v -8.569996 3.557125 -3.734547
v -9.486858 2.640262 -3.887364
v -8.569996 3.557125 -3.887365
vn -0.0000 1.0000 -0.0000
vn -0.0000 -0.0000 -1.0000
vn -0.0000 -1.0000 -0.0000
vn -0.0000 -0.0000 1.0000
vn -0.5144 0.8576 -0.0000
vn 1.0000 -0.0000 -0.0000
vn -1.0000 -0.0000 -0.0000
vn -0.7071 0.7071 -0.0000
vn 0.7071 -0.7071 -0.0000
vt 0.395682 0.000000
vt 0.625000 0.000000
vt 0.625000 0.250000
vt 0.395682 0.250000
vt 0.625000 0.500000
vt 0.375000 0.500000
vt 0.625000 0.750000
vt 0.375000 0.750000
vt 0.625000 1.000000
vt 0.395682 1.000000
vt 0.125000 0.500000
vt 0.125000 0.750000
vt 0.875000 0.500000
vt 0.875000 0.750000
vt 0.375000 0.000000
vt 0.375000 0.250000
vt 0.375000 1.000000
vt 0.424289 0.000000
vt 0.599849 0.000000
vt 0.599849 0.250000
vt 0.424289 0.250000
vt 0.599849 1.000000
vt 0.424289 1.000000
s 0
f 595/97/121 596/98/121 598/99/121 597/100/121
f 597/100/122 598/99/122 602/101/122 601/102/122
f 601/102/123 602/101/123 600/103/123 599/104/123
f 599/104/124 600/103/124 596/105/124 595/106/124
f 597/107/125 601/102/125 599/104/125 595/108/125
f 602/101/126 598/109/126 596/110/126 600/103/126
f 603/111/127 604/98/127 606/99/127 605/112/127
f 605/112/122 606/99/122 610/101/122 609/102/122
f 609/102/126 610/101/126 608/103/126 607/104/126
f 607/104/124 608/103/124 604/105/124 603/113/124
f 605/107/123 609/102/123 607/104/123 603/108/123
f 610/101/121 606/109/121 604/110/121 608/103/121
f 611/111/127 612/98/127 614/99/127 613/112/127
f 613/112/122 614/99/122 618/101/122 617/102/122
f 617/102/126 618/101/126 616/103/126 615/104/126
f 615/104/124 616/103/124 612/105/124 611/113/124
f 613/107/123 617/102/123 615/104/123 611/108/123
f 618/101/121 614/109/121 612/110/121 616/103/121
f 619/97/121 620/98/121 622/99/121 621/100/121
f 621/100/122 622/99/122 626/101/122 625/102/122
f 625/102/123 626/101/123 624/103/123 623/104/123
f 623/104/124 624/103/124 620/105/124 619/106/124
f 621/107/125 625/102/125 623/104/125 619/108/125
f 626/101/126 622/109/126 620/110/126 624/103/126
f 627/114/128 628/115/128 630/116/128 629/117/128
f 629/117/122 630/116/122 634/101/122 633/102/122
f 633/102/129 634/101/129 632/103/129 631/104/129
f 631/104/124 632/103/124 628/118/124 627/119/124
f 635/114/128 636/115/128 638/116/128 637/117/128
f 637/117/122 638/116/122 642/101/122 641/102/122
f 641/102/129 642/101/129 640/103/129 639/104/129
f 639/104/124 640/103/124 636/118/124 635/119/124
