# Blender 3.6.3
# www.blender.org
o Hojas
v 0.214877 1.506836 -1.859880
v -0.940285 1.413474 -1.693248
v -1.863501 1.291736 -0.973789
v -1.902172 1.448442 -0.103841
v -1.646135 1.291736 1.049394
v -0.856385 1.552649 1.653961
v 0.071799 1.564479 1.844984
v 1.032899 1.473973 1.787474
v 1.768661 1.384890 1.032574
v 2.082168 1.369037 0.238483
v 1.555619 1.526366 -0.982995
v 0.954887 1.291736 -1.674487
v 0.002654 3.580941 -0.541059
v -0.262923 3.580941 -0.469898
v -0.457339 3.580941 -0.275482
v -0.528500 3.580941 -0.009905
v -0.457339 3.580941 0.255672
v -0.262923 3.580941 0.450088
v 0.002654 3.580941 0.521249
v 0.268231 3.580941 0.450088
v 0.462647 3.580941 0.255672
v 0.517471 3.580941 0.051068
v 0.462647 3.580941 -0.275482
v 0.268231 3.580941 -0.469898
v 1.585411 1.698987 -0.389846
v 0.498228 3.580941 -0.142694
v 1.201138 1.629657 1.138100
v 0.365439 3.580941 0.352880
v -0.451010 1.376953 2.063044
v -0.130135 3.580941 0.485669
v -1.506243 1.514850 0.418469
v -0.492920 3.580941 0.122884
v -1.176666 1.492465 -1.319791
v -0.360131 3.580941 -0.372690
v -0.354585 1.291736 -1.839384
v -0.130135 3.580941 -0.505479
v 1.191828 1.291736 -1.187103
v 0.365439 3.580941 -0.372690
v -0.883625 2.729383 -1.460105
v -1.622934 2.644279 -0.695061
v -1.886448 2.533308 0.338816
v -1.428581 2.676154 0.987245
v -0.600192 2.533308 1.675247
v 0.306415 2.771145 1.669913
v 1.081871 2.781928 1.289307
v 1.742278 2.699427 0.711244
v 1.850934 2.618223 -0.243505
v 1.633454 2.603772 -0.990729
v 0.572046 2.747186 -1.576865
v -0.246900 2.533308 -1.739701
v -0.300185 4.620048 -0.391340
v -0.451813 4.620048 -0.191782
v -0.483348 4.620048 0.056855
v -0.386339 4.620048 0.287948
v -0.186781 4.620048 0.439577
v 0.061856 4.620048 0.471111
v 0.292949 4.620048 0.374102
v 0.444577 4.620048 0.174544
v 0.476112 4.620048 -0.074093
v 0.401375 4.620048 -0.252130
v 0.179545 4.620048 -0.456814
v -0.069092 4.620048 -0.488349
v 0.924693 2.904540 -1.166108
v 0.279324 4.620048 -0.381000
v 1.500927 2.841342 0.149404
v 0.460345 4.620048 0.050226
v 0.826916 2.610988 1.738337
v 0.177403 4.620048 0.422607
v -0.851668 2.736689 1.142529
v -0.286560 4.620048 0.363762
v -1.584740 2.716284 -0.293986
v -0.467581 4.620048 -0.067463
v -1.282505 2.533308 -1.127381
v -0.375999 4.620048 -0.291561
v 0.195955 2.533308 -1.520813
v 0.055226 4.620048 -0.472581
v 0.530866 3.942155 1.352546
v 1.261518 3.869700 0.817235
v 1.631711 3.775223 -0.012256
v 1.341038 3.896838 -0.622356
v 0.745178 3.775223 -1.319092
v -0.016295 3.977709 -1.445352
v -0.721837 3.986890 -1.237823
v -1.359321 3.916651 -0.848023
v -1.588169 3.847517 -0.062595
v -1.513442 3.835214 0.595736
v -0.707373 3.957312 1.240602
v -0.043706 3.775223 1.495327
v 0.195442 5.551804 0.371648
v 0.351445 5.551804 0.226070
v 0.413759 5.551804 0.021995
v 0.365687 5.551804 -0.185896
v 0.220110 5.551804 -0.341899
v 0.016035 5.551804 -0.404213
v -0.191856 5.551804 -0.356141
v -0.347860 5.551804 -0.210563
v -0.410173 5.551804 -0.006488
v -0.373138 5.551804 0.153674
v -0.216524 5.551804 0.357406
v -0.012449 5.551804 0.419720
v -0.944035 4.091278 0.845096
v -0.289313 5.551804 0.279404
v -1.237831 4.037473 -0.341799
v -0.379016 5.551804 -0.108526
v -0.443162 3.841357 -1.577823
v -0.087911 5.551804 -0.380177
v 0.879362 3.948375 -0.835843
v 0.292899 5.551804 -0.263897
v 1.287307 3.931003 0.475199
v 0.382602 5.551804 0.124033
v 0.913533 3.775223 1.130888
v 0.273444 5.551804 0.298859
v -0.383726 3.775223 1.247804
v -0.114486 5.551804 0.388563
v -0.342402 4.918400 1.126299
v 0.390936 4.859698 1.153330
v 1.043061 4.783154 0.812264
v 1.164967 4.881685 0.278479
v 1.136476 4.783154 -0.463737
v 0.716038 4.947206 -0.926666
v 0.163390 4.954644 -1.149373
v -0.437613 4.897737 -1.222049
v -0.977774 4.841725 -0.837946
v -1.261145 4.831758 -0.382041
v -1.073005 4.930680 0.432858
v -0.779283 4.783154 0.928268
v -0.062582 6.222513 0.334394
v 0.109716 6.222513 0.320287
v 0.251877 6.222513 0.221921
v 0.325809 6.222513 0.065653
v 0.311702 6.222513 -0.106645
v 0.213336 6.222513 -0.248806
v 0.057067 6.222513 -0.322738
v -0.115231 6.222513 -0.308631
v -0.257392 6.222513 -0.210265
v -0.314350 6.222513 -0.089874
v -0.317216 6.222513 0.118301
v -0.218850 6.222513 0.260462
v -1.024626 5.039217 0.062587
v -0.324270 6.222513 0.032152
v -0.614825 4.995625 -0.839302
v -0.186311 6.222513 -0.259448
v 0.511354 4.836735 -1.225378
v 0.135201 6.222513 -0.285772
v 0.978878 4.923440 -0.089210
v 0.318755 6.222513 -0.020496
v 0.579222 4.909365 0.948938
v 0.180796 6.222513 0.271104
v 0.012169 4.783154 1.177760
v 0.023567 6.222513 0.327341
v -0.870957 4.783154 0.600091
v -0.268033 6.222513 0.189382
v 0.744865 5.898895 0.325945
v 0.822711 5.858351 -0.174883
v 0.641502 5.805484 -0.649772
v 0.285226 5.873537 -0.776557
v -0.226181 5.805484 -0.817037
v -0.577716 5.918790 -0.566086
v -0.775168 5.923927 -0.205022
v -0.873621 5.884624 0.201343
v -0.653838 5.845938 0.602913
v -0.364039 5.839053 0.834153
v 0.210134 5.907376 0.771004
v 0.573700 5.805484 0.609597
v 0.224308 6.799611 0.069969
v 0.228565 6.799611 -0.049355
v 0.172590 6.799611 -0.154822
v 0.071381 6.799611 -0.218170
v -0.047943 6.799611 -0.222428
v -0.153409 6.799611 -0.166453
v -0.216758 6.799611 -0.065244
v -0.221016 6.799611 0.054081
v -0.165041 6.799611 0.159547
v -0.087068 6.799611 0.208352
v 0.055493 6.799611 0.227153
v 0.160959 6.799611 0.171178
v -0.039931 5.982340 0.707876
v -0.004169 6.799611 0.225024
v -0.625417 5.952232 0.353848
v -0.193028 6.799611 0.106814
v -0.799162 5.842491 -0.449845
v -0.185084 6.799611 -0.115848
v 0.017970 5.902375 -0.678649
v 0.011719 6.799611 -0.220299
v 0.697740 5.892654 -0.320562
v 0.200577 6.799611 -0.102088
v 0.808837 5.805484 0.086898
v 0.226436 6.799611 0.010307
v 0.341182 5.805484 0.645938
v 0.108226 6.799611 0.199165
v 0.359151 6.486816 -0.485422
v 0.009402 6.456706 -0.624590
v -0.364398 6.417442 -0.571905
v -0.515100 6.467983 -0.334908
v -0.628964 6.417442 0.028678
v -0.505387 6.501592 0.324695
v -0.276608 6.505407 0.527356
v 0.001339 6.476217 0.665826
v 0.328430 6.447486 0.573089
v 0.543772 6.442373 0.401495
v 0.592981 6.493115 -0.024670
v 0.536227 6.417442 -0.314594
v 0.505929 6.548789 0.145950
v 0.152796 6.526429 0.511331
v -0.457837 6.444926 0.504250
v -0.488399 6.489401 -0.125217
v -0.116738 6.482182 -0.558193
v 0.196648 6.417442 -0.571263
v 0.524096 6.417442 -0.140233
v 0.022532 7.631951 -0.035258
v 0.005268 7.631951 -0.039854
v -0.011980 7.631951 -0.035202
v -0.024591 7.631951 -0.022549
v -0.029187 7.631951 -0.005286
v -0.024535 7.631951 0.011963
v -0.011882 7.631951 0.024574
v 0.005381 7.631951 0.029170
v 0.022629 7.631951 0.024518
v 0.032345 7.631951 0.014770
v 0.039836 7.631951 -0.005399
v 0.035185 7.631951 -0.022647
v 0.037539 7.631951 0.003233
v 0.014005 7.631951 0.026844
v -0.018209 7.631951 0.018268
v -0.026889 7.631951 -0.013918
v -0.003356 7.631951 -0.037528
v 0.013900 7.631951 -0.037556
v 0.037511 7.631951 -0.014023
vn -0.8236 0.5456 -0.1550
vn 0.8006 0.5229 -0.2927
vn 0.1272 0.5559 0.8215
vn -0.7637 0.4561 0.4568
vn 0.3253 0.4375 -0.8383
vn -0.2218 0.5070 -0.8329
vn 0.7748 0.5047 0.3807
vn -0.6158 0.5257 0.5869
vn 0.3140 0.5230 -0.7924
vn -0.6577 0.5124 -0.5521
vn 0.7762 0.5662 0.2773
vn -0.4107 0.5610 0.7187
vn 0.8367 0.5111 -0.1969
vn 0.4159 0.5007 0.7592
vn 0.0685 0.5624 0.8240
vn -0.8913 0.4533 0.0107
vn -0.5175 0.5186 -0.6806
vn -0.1278 0.5129 -0.8489
vn 0.7747 0.4513 -0.4428
vn -0.7460 0.5456 0.3820
vn 0.4536 0.5229 -0.7217
vn 0.6037 0.5559 0.5714
vn -0.3239 0.4561 0.8289
vn -0.2564 0.4375 -0.8619
vn -0.6855 0.5070 -0.5225
vn 0.8457 0.5047 -0.1736
vn -0.1273 0.5257 0.8411
vn -0.2371 0.5230 -0.8187
vn -0.8581 0.5124 -0.0336
vn 0.7834 0.5662 -0.2563
vn 0.1156 0.5610 0.8197
vn 0.5408 0.5111 -0.6681
vn 0.7937 0.5007 0.3453
vn 0.5589 0.5624 0.6094
vn -0.6980 0.4533 0.5544
vn -0.8260 0.5186 -0.2210
vn -0.6209 0.5129 -0.5927
vn 0.3412 0.4513 -0.8246
vn 0.7999 0.5456 -0.2501
vn -0.5693 0.5229 0.6345
vn -0.4982 0.5559 -0.6654
vn 0.4596 0.4561 -0.7620
vn 0.1067 0.4375 0.8929
vn 0.5871 0.5070 0.6311
vn -0.8629 0.5047 0.0279
vn 0.2679 0.5257 -0.8074
vn 0.0950 0.5230 0.8470
vn 0.8400 0.5124 0.1785
vn -0.8155 0.5662 0.1199
vn 0.0249 0.5610 -0.8274
vn -0.6461 0.5111 0.5669
vn -0.7238 0.5007 -0.4748
vn -0.4476 0.5624 -0.6953
vn 0.7818 0.4533 -0.4282
vn 0.7766 0.5186 0.3577
vn 0.5116 0.5129 0.6893
vn -0.4759 0.4513 0.7549
vn 0.7825 0.5456 0.3000
vn -0.8401 0.5229 0.1445
vn 0.0220 0.5559 -0.8310
vn 0.8332 0.4561 -0.3126
vn -0.4702 0.4375 0.7665
vn 0.0690 0.5070 0.8592
vn -0.6941 0.5047 -0.5134
vn 0.7110 0.5257 -0.4671
vn -0.4509 0.5230 0.7233
vn 0.5481 0.5124 0.6610
vn -0.7140 0.5662 -0.4119
vn 0.5328 0.5610 -0.6335
vn -0.8584 0.5111 0.0438
vn -0.2732 0.5007 -0.8214
vn 0.0802 0.5624 -0.8230
vn 0.8788 0.4533 0.1491
vn 0.3872 0.5186 0.7623
vn -0.0263 0.5129 0.8580
vn -0.8415 0.4513 0.2969
vn 0.3895 0.5456 -0.7420
vn 0.0451 0.5229 0.8512
vn -0.8227 0.5559 -0.1192
vn -0.2129 0.4561 -0.8641
vn 0.7062 0.4375 0.5567
vn 0.8613 0.5070 0.0321
vn -0.5911 0.5047 0.6292
vn -0.3806 0.5257 -0.7608
vn 0.6656 0.5230 0.5325
vn 0.7207 0.5124 -0.4670
vn -0.4926 0.5662 0.6609
vn -0.5668 0.5610 -0.6033
vn -0.0570 0.5111 0.8576
vn -0.8477 0.5007 0.1751
vn -0.8079 0.5624 -0.1760
vn 0.2510 0.4533 -0.8553
vn 0.8024 0.5186 -0.2953
vn 0.8490 0.5129 0.1266
vn 0.1963 0.4513 0.8705
vn -0.9266 0.3701 0.0673
vn 0.7049 0.3496 -0.6172
vn 0.5793 0.3895 0.7160
vn -0.8681 0.4353 0.2384
vn 0.7042 0.4281 -0.5664
vn -0.3496 0.4156 -0.8397
vn 0.5624 0.4634 0.6849
vn -0.8113 0.4506 0.3726
vn 0.8601 0.4121 0.3007
vn -0.7047 0.4466 -0.5514
vn 0.9129 0.4052 0.0498
vn -0.3528 0.4509 0.8199
vn -0.1287 0.3869 0.9131
vn -0.2777 0.4478 0.8499
vn -0.7734 0.3652 -0.5181
vn -0.0654 0.4181 -0.9061
vn 0.3249 0.4216 -0.8466
vn 0.9282 0.3688 0.0497
vn 0.2746 0.4209 -0.8645
vt 0.000000 0.000000
s 0
f 4/1/1 16/1/1 15/1/1 3/1/1
f 25/1/2 26/1/2 22/1/2 10/1/2
f 8/1/3 20/1/3 19/1/3 7/1/3
f 31/1/4 32/1/4 16/1/4 4/1/4
f 37/1/5 38/1/5 23/1/5 11/1/5
f 35/1/6 36/1/6 13/1/6 1/1/6
f 27/1/7 28/1/7 20/1/7 8/1/7
f 6/1/8 18/1/8 17/1/8 5/1/8
f 1/1/9 13/1/9 24/1/9 12/1/9
f 33/1/10 34/1/10 14/1/10 2/1/10
f 10/1/11 22/1/11 21/1/11 9/1/11
f 29/1/12 30/1/12 18/1/12 6/1/12
f 11/1/13 23/1/13 26/1/13 25/1/13
f 9/1/14 21/1/14 28/1/14 27/1/14
f 7/1/15 19/1/15 30/1/15 29/1/15
f 5/1/16 17/1/16 32/1/16 31/1/16
f 3/1/17 15/1/17 34/1/17 33/1/17
f 2/1/18 14/1/18 36/1/18 35/1/18
f 12/1/19 24/1/19 38/1/19 37/1/19
f 42/1/20 54/1/20 53/1/20 41/1/20
f 63/1/21 64/1/21 60/1/21 48/1/21
f 46/1/22 58/1/22 57/1/22 45/1/22
f 69/1/23 70/1/23 54/1/23 42/1/23
f 75/1/24 76/1/24 61/1/24 49/1/24
f 73/1/25 74/1/25 51/1/25 39/1/25
f 65/1/26 66/1/26 58/1/26 46/1/26
f 44/1/27 56/1/27 55/1/27 43/1/27
f 39/1/28 51/1/28 62/1/28 50/1/28
f 71/1/29 72/1/29 52/1/29 40/1/29
f 48/1/30 60/1/30 59/1/30 47/1/30
f 67/1/31 68/1/31 56/1/31 44/1/31
f 49/1/32 61/1/32 64/1/32 63/1/32
f 47/1/33 59/1/33 66/1/33 65/1/33
f 45/1/34 57/1/34 68/1/34 67/1/34
f 43/1/35 55/1/35 70/1/35 69/1/35
f 41/1/36 53/1/36 72/1/36 71/1/36
f 40/1/37 52/1/37 74/1/37 73/1/37
f 50/1/38 62/1/38 76/1/38 75/1/38
f 80/1/39 92/1/39 91/1/39 79/1/39
f 101/1/40 102/1/40 98/1/40 86/1/40
f 84/1/41 96/1/41 95/1/41 83/1/41
f 107/1/42 108/1/42 92/1/42 80/1/42
f 113/1/43 114/1/43 99/1/43 87/1/43
f 111/1/44 112/1/44 89/1/44 77/1/44
f 103/1/45 104/1/45 96/1/45 84/1/45
f 82/1/46 94/1/46 93/1/46 81/1/46
f 77/1/47 89/1/47 100/1/47 88/1/47
f 109/1/48 110/1/48 90/1/48 78/1/48
f 86/1/49 98/1/49 97/1/49 85/1/49
f 105/1/50 106/1/50 94/1/50 82/1/50
f 87/1/51 99/1/51 102/1/51 101/1/51
f 85/1/52 97/1/52 104/1/52 103/1/52
f 83/1/53 95/1/53 106/1/53 105/1/53
f 81/1/54 93/1/54 108/1/54 107/1/54
f 79/1/55 91/1/55 110/1/55 109/1/55
f 78/1/56 90/1/56 112/1/56 111/1/56
f 88/1/57 100/1/57 114/1/57 113/1/57
f 118/1/58 130/1/58 129/1/58 117/1/58
f 139/1/59 140/1/59 136/1/59 124/1/59
f 122/1/60 134/1/60 133/1/60 121/1/60
f 145/1/61 146/1/61 130/1/61 118/1/61
f 151/1/62 152/1/62 137/1/62 125/1/62
f 149/1/63 150/1/63 127/1/63 115/1/63
f 141/1/64 142/1/64 134/1/64 122/1/64
f 120/1/65 132/1/65 131/1/65 119/1/65
f 115/1/66 127/1/66 138/1/66 126/1/66
f 147/1/67 148/1/67 128/1/67 116/1/67
f 124/1/68 136/1/68 135/1/68 123/1/68
f 143/1/69 144/1/69 132/1/69 120/1/69
f 125/1/70 137/1/70 140/1/70 139/1/70
f 123/1/71 135/1/71 142/1/71 141/1/71
f 121/1/72 133/1/72 144/1/72 143/1/72
f 119/1/73 131/1/73 146/1/73 145/1/73
f 117/1/74 129/1/74 148/1/74 147/1/74
f 116/1/75 128/1/75 150/1/75 149/1/75
f 126/1/76 138/1/76 152/1/76 151/1/76
f 156/1/77 168/1/77 167/1/77 155/1/77
f 177/1/78 178/1/78 174/1/78 162/1/78
f 160/1/79 172/1/79 171/1/79 159/1/79
f 183/1/80 184/1/80 168/1/80 156/1/80
f 189/1/81 190/1/81 175/1/81 163/1/81
f 187/1/82 188/1/82 165/1/82 153/1/82
f 179/1/83 180/1/83 172/1/83 160/1/83
f 158/1/84 170/1/84 169/1/84 157/1/84
f 153/1/85 165/1/85 176/1/85 164/1/85
f 185/1/86 186/1/86 166/1/86 154/1/86
f 162/1/87 174/1/87 173/1/87 161/1/87
f 181/1/88 182/1/88 170/1/88 158/1/88
f 163/1/89 175/1/89 178/1/89 177/1/89
f 161/1/90 173/1/90 180/1/90 179/1/90
f 159/1/91 171/1/91 182/1/91 181/1/91
f 157/1/92 169/1/92 184/1/92 183/1/92
f 155/1/93 167/1/93 186/1/93 185/1/93
f 154/1/94 166/1/94 188/1/94 187/1/94
f 164/1/95 176/1/95 190/1/95 189/1/95
f 194/1/96 206/1/96 225/1/96 213/1/96
f 201/1/97 209/1/97 228/1/97 220/1/97
f 198/1/98 204/1/98 223/1/98 217/1/98
f 195/1/99 196/1/99 215/1/99 214/1/99
f 202/1/100 191/1/100 210/1/100 221/1/100
f 192/1/101 207/1/101 226/1/101 211/1/101
f 199/1/102 200/1/102 219/1/102 218/1/102
f 196/1/103 205/1/103 224/1/103 215/1/103
f 203/1/104 201/1/104 220/1/104 222/1/104
f 193/1/105 194/1/105 213/1/105 212/1/105
f 200/1/106 203/1/106 222/1/106 219/1/106
f 197/1/107 198/1/107 217/1/107 216/1/107
f 204/1/108 199/1/108 218/1/108 223/1/108
f 205/1/109 197/1/109 216/1/109 224/1/109
f 206/1/110 195/1/110 214/1/110 225/1/110
f 207/1/111 193/1/111 212/1/111 226/1/111
f 208/1/112 192/1/112 211/1/112 227/1/112
f 209/1/113 202/1/113 221/1/113 228/1/113
f 191/1/114 208/1/114 227/1/114 210/1/114
o Tronco
v 0.000000 -0.068752 0.633212
v 0.005279 0.520266 0.456951
v -0.633212 -0.068752 0.000000
v -0.386046 0.520266 0.002128
v 0.633212 -0.068752 0.000000
v 0.460103 0.520266 0.065626
v 0.000000 -0.068752 -0.633212
v 0.068777 0.520266 -0.389198
v 0.007694 1.578502 0.314778
v -0.294294 1.578502 0.058115
v -0.037631 1.578502 -0.243873
v 0.264357 1.578502 0.012790
v 0.000000 3.557796 0.202489
v -0.202489 3.557796 0.000000
v 0.000000 3.557796 -0.202489
v 0.202489 3.557796 0.000000
v 0.000000 6.791296 0.182114
v -0.182114 6.791296 0.000000
v 0.000000 6.791296 -0.182114
v 0.182114 6.791296 0.000000
vn -0.7051 0.2492 0.6639
vn -0.6498 0.3185 -0.6901
vn 0.7072 0.2377 -0.6659
vn 0.6763 0.1638 0.7182
vn 0.7100 0.1316 -0.6918
vn -0.6724 0.0461 0.7388
vn -0.7149 0.0602 0.6966
vn 0.6921 0.1287 0.7102
vn -0.6965 0.0632 -0.7148
vn 0.7071 0.0045 0.7071
vn 0.7391 0.0342 0.6727
vn -0.7394 0.0213 -0.6730
vn 0.6731 0.0095 -0.7395
vn -0.0000 1.0000 -0.0000
vn -0.7071 0.0045 -0.7071
vn 0.7071 0.0045 -0.7071
vn -0.7071 0.0045 0.7071
vt 0.375000 0.000000
vt 0.625000 0.000000
vt 0.625000 0.250000
vt 0.375000 0.250000
vt 0.625000 0.500000
vt 0.375000 0.500000
vt 0.625000 0.750000
vt 0.375000 0.750000
vt 0.625000 1.000000
vt 0.375000 1.000000
vt 0.875000 0.500000
vt 0.875000 0.750000
s 0
f 229/2/115 230/3/115 232/4/115 231/5/115
f 231/5/116 232/4/116 236/6/116 235/7/116
f 235/7/117 236/6/117 234/8/117 233/9/117
f 233/9/118 234/8/118 230/10/118 229/11/118
f 234/8/119 236/6/119 239/6/119 240/8/119
f 238/4/120 237/3/120 241/3/120 242/4/120
f 232/4/121 230/3/121 237/3/121 238/4/121
f 230/10/122 234/8/122 240/8/122 237/10/122
f 236/6/123 232/4/123 238/4/123 239/6/123
f 241/10/124 244/8/124 248/8/124 245/10/124
f 237/10/125 240/8/125 244/8/125 241/10/125
f 239/6/126 238/4/126 242/4/126 243/6/126
f 240/8/127 239/6/127 243/6/127 244/8/127
f 247/6/128 246/12/128 245/13/128 248/8/128
f 243/6/129 242/4/129 246/4/129 247/6/129
f 244/8/130 243/6/130 247/6/130 248/8/130
f 242/4/131 241/3/131 245/3/131 246/4/131
