# Blender 3.6.3
# www.blender.org
mtllib Tree.mtl
o Hojas
v 0.459811 1.508484 -1.458764
v -0.489627 1.416291 -1.499300
v -1.336653 1.294887 -1.062667
v -1.498242 1.450749 -0.372184
v -1.466998 1.292569 0.588815
v -0.925717 1.551949 1.191700
v -0.211771 1.562509 1.484146
v 0.565769 1.470948 1.582533
v 1.267893 1.381784 1.089037
v 1.638141 1.366379 0.500792
v 1.400717 1.525566 -0.555490
v 1.023777 1.292339 -1.199461
v 0.094090 3.581485 -0.432360
v -0.129105 3.581720 -0.415362
v -0.313900 3.581747 -0.289044
v -0.410777 3.581558 -0.087251
v -0.393780 3.581204 0.135945
v -0.267461 3.580780 0.320739
v -0.065669 3.580400 0.417616
v 0.157527 3.580165 0.400618
v 0.342322 3.580138 0.274299
v 0.416957 3.580284 0.118836
v 0.422201 3.580681 -0.150689
v 0.295883 3.581105 -0.335483
v 1.335552 1.697546 -0.076160
v 0.430700 3.580504 -0.039091
v 0.798221 1.627101 1.088489
v 0.249924 3.580152 0.337458
v -0.663094 1.375366 1.579717
v -0.166565 3.580590 0.369177
v -1.259923 1.516165 0.105370
v -0.402278 3.581381 0.024347
v -0.734833 1.495174 -1.235919
v -0.221503 3.581733 -0.352203
v 0.000839 1.294024 -1.528327
v -0.017507 3.581603 -0.423861
v 1.140062 1.291566 -0.773862
v 0.359042 3.580893 -0.243086
v 0.085949 2.732965 -1.102262
v -0.246513 2.575621 -1.078771
v 0.521912 2.574358 -1.009879
v -0.008254 4.252174 -0.323392
v -0.085082 4.252221 -0.299824
v 0.148382 4.251859 -0.287386
v 0.207206 4.251633 -0.232635
v 0.266030 4.251406 -0.177885
v 0.670540 2.573414 -0.730123
v 0.887580 2.744888 -0.618058
v 0.917589 2.870535 -0.271843
v 1.220609 2.627192 0.084172
v 0.289598 4.251171 -0.101058
v 0.304899 4.250854 0.011731
v 0.277158 4.250576 0.132405
v 1.054117 2.637819 0.554664
v 0.222408 4.250499 0.191229
v 0.167657 4.250422 0.250053
v 0.725044 2.817597 0.628673
v 0.640206 2.702535 1.011251
v 0.080046 2.769559 1.065159
v 0.014002 4.250514 0.297189
v -0.220995 2.632092 1.203139
v -0.466197 2.761895 0.972993
v -0.064316 4.250671 0.279186
v -0.142634 4.250829 0.261183
v -0.260282 4.251283 0.151682
v -0.940492 2.572098 0.635862
v -0.283850 4.251517 0.074855
v -0.307417 4.251752 -0.001972
v -0.871758 2.736604 0.264786
v -1.114064 2.689022 -0.032170
v -1.109861 2.575427 -0.541489
v -0.271410 4.252112 -0.158608
v -0.715666 2.722651 -0.757623
v -0.585482 2.665123 -0.980894
v -0.216660 4.252190 -0.217432
v -0.161909 4.252267 -0.276256
v 0.639985 3.581511 0.465789
v 0.747883 3.465965 0.243497
v 0.418306 3.464911 0.710617
v 0.180588 4.703029 0.119920
v 0.194011 4.703200 0.061906
v 0.099324 4.702862 0.206981
v 0.042371 4.702888 0.224363
v -0.014583 4.702916 0.241746
v 0.183726 3.465289 0.702013
v 0.031828 3.591854 0.799986
v -0.200891 3.685749 0.690958
v -0.542510 3.507932 0.752420
v -0.072597 4.703047 0.228323
v -0.150600 4.703269 0.196244
v -0.217673 4.703576 0.133638
v -0.782312 3.517777 0.470952
v -0.235055 4.703790 0.076684
v -0.252438 4.704004 0.019731
v -0.706951 3.650589 0.232915
v -0.921125 3.567512 0.036140
v -0.747421 3.617366 -0.342885
v -0.225591 4.704348 -0.096297
v -0.724537 3.516907 -0.587501
v -0.485472 3.611635 -0.658921
v -0.184960 4.704432 -0.139828
v -0.144328 4.704515 -0.183358
v -0.030421 4.704460 -0.218124
v -0.093778 3.470794 -0.838301
v 0.027594 4.704329 -0.204701
v 0.085608 4.704199 -0.191278
v 0.119166 3.590321 -0.656000
v 0.399407 3.554204 -0.701195
v 0.724039 3.468491 -0.509624
v 0.172669 4.703801 -0.110015
v 0.716699 3.575761 -0.176227
v 0.811317 3.532428 -0.009975
v 0.190052 4.703587 -0.053062
v 0.207434 4.703372 0.003891
v 0.478466 4.468874 0.166431
v 0.505168 4.400008 0.019118
v 0.389202 4.398967 0.345333
v 0.048645 5.615217 0.019797
v 0.048314 5.615245 0.012540
v 0.041960 5.615180 0.032698
v 0.035840 5.615174 0.036613
v 0.029720 5.615169 0.040528
v 0.250991 4.399053 0.378602
v 0.178332 4.474530 0.460601
v 0.024769 4.530533 0.435051
v -0.164342 4.424062 0.526556
v 0.022462 5.615179 0.040859
v 0.012243 5.615198 0.039655
v 0.002304 5.615232 0.034504
v -0.001611 5.615262 0.028384
v -0.350138 4.429924 0.401550
v -0.345106 4.509423 0.250500
v -0.502087 4.459747 0.170653
v -0.462672 4.489808 -0.078718
v -0.005526 5.615290 0.022265
v -0.006187 5.615346 0.007750
v -0.002845 5.615365 0.001299
v 0.000498 5.615384 -0.005151
v -0.489201 4.429913 -0.225167
v -0.361484 4.486686 -0.305787
v -0.162256 4.402863 -0.474408
v -0.008373 4.474321 -0.402781
v 0.012738 5.615394 -0.012981
v 0.019995 5.615384 -0.013312
v 0.027253 5.615375 -0.013642
v 0.040154 5.615330 -0.006958
v 0.147704 4.452935 -0.474898
v 0.368339 4.401840 -0.416207
v 0.418421 4.465774 -0.220515
v 0.500758 4.439868 -0.139024
v 0.044069 5.615301 -0.000838
v 0.047984 5.615273 0.005282
vn -0.8227 0.4697 -0.3203
vn 0.8831 0.4460 -0.1460
vn -0.0277 0.4769 0.8785
vn -0.8654 0.3856 0.3199
vn 0.4911 0.3688 -0.7892
vn -0.0666 0.4333 -0.8988
vn 0.7234 0.4281 0.5417
vn -0.7489 0.4496 0.4869
vn 0.4781 0.4474 -0.7558
vn -0.5697 0.4387 -0.6950
vn 0.7541 0.4865 0.4411
vn -0.5668 0.4828 0.6676
vn 0.8997 0.4348 -0.0401
vn 0.2811 0.4244 0.8607
vn -0.0892 0.4832 0.8710
vn -0.9096 0.3839 -0.1592
vn -0.4010 0.4444 -0.8011
vn 0.0332 0.4388 -0.8980
vn 0.8742 0.3802 -0.3021
vn -0.2636 0.4271 -0.8649
vn 0.3014 0.4411 -0.8453
vn 0.7887 0.3741 -0.4878
vn 0.3064 0.3634 -0.8798
vn 0.8722 0.4277 -0.2373
vn 0.8328 0.4390 -0.3373
vn 0.8367 0.4784 0.2665
vn 0.4652 0.4160 0.7814
vn 0.8279 0.4202 0.3714
vn 0.1668 0.4679 0.8679
vn 0.1049 0.4741 0.8742
vn -0.4082 0.4738 0.7803
vn -0.6262 0.4411 0.6429
vn -0.9252 0.3769 0.0453
vn -0.7764 0.3780 0.5044
vn -0.8770 0.4621 -0.1315
vn -0.5696 0.4379 -0.6955
vn -0.7114 0.4320 -0.5543
vn -0.1657 0.4326 -0.8862
vn 0.8814 0.4248 0.2066
vn 0.5816 0.4385 0.6852
vn 0.0284 0.3729 0.9274
vn 0.6088 0.3604 0.7067
vn -0.2297 0.4281 0.8741
vn -0.1234 0.4388 0.8901
vn -0.6469 0.4817 0.5912
vn -0.9064 0.4223 0.0123
vn -0.7336 0.4240 0.5310
vn -0.8313 0.4750 -0.2886
vn -0.8057 0.4814 -0.3453
vn -0.4678 0.4809 -0.7416
vn -0.2402 0.4475 -0.8614
vn 0.4258 0.3799 -0.8212
vn -0.0456 0.3835 -0.9224
vn 0.5547 0.4644 -0.6904
vn 0.8882 0.4367 -0.1426
vn 0.8372 0.4317 -0.3358
vn 0.8508 0.4301 0.3019
vn 0.9361 0.3517 0.0031
vn 0.7771 0.3564 0.5187
vn 0.2379 0.3033 0.9227
vn 0.8183 0.2873 0.4979
vn -0.0283 0.3418 0.9393
vn 0.2343 0.3353 0.9125
vn -0.5019 0.3893 0.7724
vn -0.9330 0.3238 0.1572
vn -0.5216 0.3231 0.7896
vn -0.9197 0.3818 -0.0915
vn -0.9255 0.3787 -0.0079
vn -0.6206 0.3833 -0.6841
vn -0.5045 0.3697 -0.7802
vn 0.2679 0.3070 -0.9132
vn -0.3508 0.3121 -0.8829
vn 0.3255 0.3789 -0.8663
vn 0.8711 0.3505 -0.3441
vn 0.7173 0.3496 -0.6027
vn 0.9342 0.3521 0.0581
vt 0.000000 0.000000
s 0
f 4/1/1 16/1/1 15/1/1 3/1/1
f 25/1/2 26/1/2 22/1/2 10/1/2
f 8/1/3 20/1/3 19/1/3 7/1/3
f 31/1/4 32/1/4 16/1/4 4/1/4
f 37/1/5 38/1/5 23/1/5 11/1/5
f 35/1/6 36/1/6 13/1/6 1/1/6
f 27/1/7 28/1/7 20/1/7 8/1/7
f 6/1/8 18/1/8 17/1/8 5/1/8
f 1/1/9 13/1/9 24/1/9 12/1/9
f 33/1/10 34/1/10 14/1/10 2/1/10
f 10/1/11 22/1/11 21/1/11 9/1/11
f 29/1/12 30/1/12 18/1/12 6/1/12
f 11/1/13 23/1/13 26/1/13 25/1/13
f 9/1/14 21/1/14 28/1/14 27/1/14
f 7/1/15 19/1/15 30/1/15 29/1/15
f 5/1/16 17/1/16 32/1/16 31/1/16
f 3/1/17 15/1/17 34/1/17 33/1/17
f 2/1/18 14/1/18 36/1/18 35/1/18
f 12/1/19 24/1/19 38/1/19 37/1/19
f 40/1/20 43/1/20 42/1/20 39/1/20
f 39/1/21 42/1/21 44/1/21 41/1/21
f 41/1/22 44/1/22 45/1/22 47/1/22
f 47/1/23 45/1/23 46/1/23 48/1/23
f 48/1/24 46/1/24 51/1/24 49/1/24
f 49/1/25 51/1/25 52/1/25 50/1/25
f 50/1/26 52/1/26 53/1/26 54/1/26
f 54/1/27 53/1/27 55/1/27 57/1/27
f 57/1/28 55/1/28 56/1/28 58/1/28
f 58/1/29 56/1/29 60/1/29 59/1/29
f 59/1/30 60/1/30 63/1/30 61/1/30
f 61/1/31 63/1/31 64/1/31 62/1/31
f 62/1/32 64/1/32 65/1/32 66/1/32
f 66/1/33 65/1/33 67/1/33 69/1/33
f 69/1/34 67/1/34 68/1/34 70/1/34
f 70/1/35 68/1/35 72/1/35 71/1/35
f 71/1/36 72/1/36 75/1/36 73/1/36
f 73/1/37 75/1/37 76/1/37 74/1/37
f 74/1/38 76/1/38 43/1/38 40/1/38
f 78/1/39 81/1/39 80/1/39 77/1/39
f 77/1/40 80/1/40 82/1/40 79/1/40
f 79/1/41 82/1/41 83/1/41 85/1/41
f 85/1/42 83/1/42 84/1/42 86/1/42
f 86/1/43 84/1/43 89/1/43 87/1/43
f 87/1/44 89/1/44 90/1/44 88/1/44
f 88/1/45 90/1/45 91/1/45 92/1/45
f 92/1/46 91/1/46 93/1/46 95/1/46
f 95/1/47 93/1/47 94/1/47 96/1/47
f 96/1/48 94/1/48 98/1/48 97/1/48
f 97/1/49 98/1/49 101/1/49 99/1/49
f 99/1/50 101/1/50 102/1/50 100/1/50
f 100/1/51 102/1/51 103/1/51 104/1/51
f 104/1/52 103/1/52 105/1/52 107/1/52
f 107/1/53 105/1/53 106/1/53 108/1/53
f 108/1/54 106/1/54 110/1/54 109/1/54
f 109/1/55 110/1/55 113/1/55 111/1/55
f 111/1/56 113/1/56 114/1/56 112/1/56
f 112/1/57 114/1/57 81/1/57 78/1/57
f 115/1/58 116/1/58 119/1/58 118/1/58
f 117/1/59 115/1/59 118/1/59 120/1/59
f 123/1/60 117/1/60 120/1/60 121/1/60
f 124/1/61 123/1/61 121/1/61 122/1/61
f 125/1/62 124/1/62 122/1/62 127/1/62
f 126/1/63 125/1/63 127/1/63 128/1/63
f 131/1/64 126/1/64 128/1/64 129/1/64
f 132/1/65 131/1/65 129/1/65 130/1/65
f 133/1/66 132/1/66 130/1/66 135/1/66
f 134/1/67 133/1/67 135/1/67 136/1/67
f 139/1/68 134/1/68 136/1/68 137/1/68
f 140/1/69 139/1/69 137/1/69 138/1/69
f 141/1/70 140/1/70 138/1/70 143/1/70
f 142/1/71 141/1/71 143/1/71 144/1/71
f 147/1/72 142/1/72 144/1/72 145/1/72
f 148/1/73 147/1/73 145/1/73 146/1/73
f 149/1/74 148/1/74 146/1/74 151/1/74
f 150/1/75 149/1/75 151/1/75 152/1/75
f 116/1/76 150/1/76 152/1/76 119/1/76
o Tronco
v -0.447728 -0.000215 -0.117225
v -0.323975 0.588781 -0.080846
v 0.117224 -0.000303 -0.447727
v 0.070063 0.588718 -0.273342
v -0.117226 -0.000286 0.447727
v -0.131480 0.588737 0.313192
v 0.447726 -0.000375 0.117225
v 0.262559 0.588675 0.120697
v -0.223713 1.646999 -0.052791
v 0.013672 1.646963 -0.218803
v 0.179684 1.646928 0.018583
v -0.057701 1.646964 0.184594
v -0.142553 3.626278 -0.037392
v 0.038108 3.626250 -0.143080
v 0.143796 3.626227 0.037581
v -0.036865 3.626255 0.143269
v -0.079125 5.166245 -0.020814
v 0.021835 5.166229 -0.079877
v 0.080897 5.166216 0.021083
v -0.020063 5.166232 0.080146
vn -0.4705 0.1850 -0.8628
vn 0.8526 0.2383 -0.4650
vn 0.4713 0.1759 0.8642
vn -0.8715 0.1206 0.4753
vn 0.4915 0.0965 0.8655
vn -0.5446 0.0338 -0.8380
vn -0.4933 0.0441 -0.8688
vn -0.8657 0.0945 0.4915
vn 0.8687 0.0461 -0.4932
vn -0.8628 0.0301 0.5047
vn -0.8382 0.0252 0.5448
vn 0.8384 0.0155 -0.5449
vn 0.5449 0.0068 0.8385
vn 0.0002 1.0000 -0.0000
vn 0.8628 0.0298 -0.5047
vn 0.5047 0.0299 0.8628
vn -0.5047 0.0301 -0.8628
vt 0.375000 0.000000
vt 0.625000 0.000000
vt 0.625000 0.250000
vt 0.375000 0.250000
vt 0.625000 0.500000
vt 0.375000 0.500000
vt 0.625000 0.750000
vt 0.375000 0.750000
vt 0.625000 1.000000
vt 0.375000 1.000000
vt 0.875000 0.500000
vt 0.875000 0.750000
s 0
f 153/2/77 154/3/77 156/4/77 155/5/77
f 155/5/78 156/4/78 160/6/78 159/7/78
f 159/7/79 160/6/79 158/8/79 157/9/79
f 157/9/80 158/8/80 154/10/80 153/11/80
f 158/8/81 160/6/81 163/6/81 164/8/81
f 162/4/82 161/3/82 165/3/82 166/4/82
f 156/4/83 154/3/83 161/3/83 162/4/83
f 154/10/84 158/8/84 164/8/84 161/10/84
f 160/6/85 156/4/85 162/4/85 163/6/85
f 165/10/86 168/8/86 172/8/86 169/10/86
f 161/10/87 164/8/87 168/8/87 165/10/87
f 163/6/88 162/4/88 166/4/88 167/6/88
f 164/8/89 163/6/89 167/6/89 168/8/89
f 171/6/90 170/12/90 169/13/90 172/8/90
f 167/6/91 166/4/91 170/4/91 171/6/91
f 168/8/92 167/6/92 171/6/92 172/8/92
f 166/4/93 165/3/93 169/3/93 170/4/93
